<svg width="846" height="846" viewBox="0 0 846 846" fill="none" xmlns="http://www.w3.org/2000/svg">
<circle cx="422.924" cy="422.755" r="219" fill="#272B30"/>
<path d="M627.632 633.778C599.083 661.472 565.212 683.086 528.068 697.31C490.924 711.535 451.28 718.075 411.536 716.534C371.791 714.993 332.772 705.404 296.841 688.347C260.91 671.289 228.814 647.118 202.495 617.297C176.176 587.476 156.181 552.624 143.722 514.851C131.262 477.079 126.597 437.171 130.007 397.543C133.418 357.915 144.834 319.391 163.565 284.303C182.296 249.216 207.951 218.293 238.979 193.408L240.025 194.711C209.174 219.455 183.664 250.202 165.04 285.091C146.415 319.979 135.064 358.284 131.673 397.686C128.281 437.089 132.92 476.77 145.309 514.328C157.698 551.886 177.578 586.539 203.748 616.191C229.917 645.843 261.831 669.876 297.558 686.837C333.285 703.797 372.082 713.332 411.6 714.864C451.119 716.396 490.537 709.893 527.47 695.75C564.403 681.606 598.082 660.115 626.468 632.579L627.632 633.778Z" fill="#373D44"/>
<path d="M706.581 283.605C728.033 327.258 739.118 375.273 738.974 423.912C738.83 472.551 727.46 520.5 705.749 564.024C684.039 607.549 652.575 645.475 613.806 674.847C575.038 704.22 530.013 724.247 482.237 733.369C434.461 742.49 385.225 740.46 338.362 727.436C291.499 714.413 248.275 690.747 212.057 658.282C175.838 625.818 147.603 585.43 129.549 540.266C111.496 495.102 104.112 446.38 107.972 397.894L109.171 397.99C105.325 446.291 112.681 494.827 130.666 539.82C148.651 584.812 176.779 625.046 212.859 657.387C248.94 689.728 291.999 713.303 338.684 726.278C385.368 739.252 434.417 741.274 482.011 732.187C529.605 723.1 574.459 703.15 613.08 673.889C651.701 644.628 683.046 606.846 704.673 563.487C726.301 520.128 737.628 472.362 737.771 423.909C737.915 375.455 726.871 327.622 705.501 284.136L706.581 283.605Z" fill="#28333E"/>
<circle cx="628.339" cy="632.292" r="2" transform="rotate(-69.8606 628.339 632.292)" fill="#00F0FF"/>
<circle cx="705.683" cy="284.046" r="2" transform="rotate(-26.1705 705.683 284.046)" fill="#00F0FF"/>
</svg>
