<svg width="84" height="86" viewBox="0 0 84 86" fill="none" xmlns="http://www.w3.org/2000/svg">
<g filter="url(#filter0_d_1_1298)">
<path fill-rule="evenodd" clip-rule="evenodd" d="M24.1866 6.22651C23.9289 6.35467 23.6162 6.62799 23.4651 6.85742C22.9013 7.71322 22.788 7.30626 26.2587 16.887C27.9969 21.6853 29.4191 25.6868 29.4191 25.7793C29.4191 26.1393 29.0996 26.5649 28.7615 26.6553C28.3936 26.7537 27.9307 26.6435 27.7394 26.412C27.6752 26.3342 26.4921 23.1493 25.1105 19.3344C22.4913 12.1026 22.4509 12.0109 21.7108 11.6227C21.2882 11.4011 20.2713 11.4808 19.8887 11.7656C19.4644 12.0814 19.1481 12.6022 19.0723 13.1104C19.0117 13.5163 19.2938 14.3558 22.0071 21.8418C23.6581 26.3971 25.009 30.2759 25.009 30.4614C25.009 31.2216 23.9704 31.6266 23.4496 31.0697C23.3086 30.9189 22.5438 28.956 21.4868 26.0327C20.5344 23.3982 19.7003 21.1059 19.6334 20.9386C19.4632 20.5132 19.0565 20.0521 18.678 19.8555C18.2666 19.6418 17.4709 19.6418 17.0595 19.8555C16.3703 20.2135 15.9016 21.0916 16.0176 21.8074C16.0746 22.1584 21.1739 36.3598 21.282 36.4685C21.3077 36.4942 21.8195 36.4309 22.4193 36.3277C25.1875 35.851 28.2446 36.4642 30.3748 37.9232C32.9792 39.7073 34.5252 42.2048 36.4508 47.7389L36.8979 49.0241L37.7 48.7282C38.141 48.5655 40.2974 47.7789 42.492 46.9802C44.6865 46.1816 46.5199 45.4942 46.5661 45.4529C46.6123 45.4116 46.3169 44.4581 45.9098 43.334C45.5026 42.2098 45.1696 41.1374 45.1696 40.9507C45.1696 40.7262 46.2634 38.259 48.3977 33.6695L51.6257 26.728L51.624 25.9368C51.6221 25.0216 51.4197 24.5415 50.7699 23.9114C50.0341 23.198 49.0433 22.9545 48.0535 23.2435C47.5867 23.3798 47.3317 23.5416 46.9146 23.966C46.454 24.4345 46.2276 24.8373 45.3316 26.7807C44.7566 28.0281 44.1956 29.1913 44.0848 29.3656C43.4351 30.3881 42.0355 30.5226 41.1779 29.6451C40.8355 29.2948 40.4727 28.3508 37.1985 19.2913C35.217 13.8087 33.5042 9.10995 33.3924 8.84951C33.0165 7.97493 32.4647 7.57282 31.6317 7.56628C31.3543 7.56417 30.9848 7.63643 30.8107 7.72683C30.1313 8.07978 29.6394 9.03189 29.7777 9.72619C29.8118 9.89761 30.9351 13.0573 32.2739 16.7479C33.7733 20.8808 34.7099 23.6096 34.7126 23.853C34.718 24.3398 34.4355 24.6539 33.9162 24.7386C33.1322 24.8664 33.2173 25.0551 29.842 15.7048C28.1561 11.0344 26.6656 7.04096 26.5298 6.83041C26.2444 6.38801 25.5305 6.00014 25.002 6.00024C24.8037 6.00024 24.4368 6.10204 24.1866 6.22651ZM47.8123 6.21986C47.5527 6.35278 47.2372 6.63516 47.0773 6.87788L46.7971 7.3032L46.7688 14.501L46.7404 21.6988L47.2413 21.5103C48.1667 21.162 49.3016 21.145 50.3963 21.4631L50.6355 21.5326L50.6063 14.4784C50.5782 7.6417 50.5707 7.41311 50.3672 7.06617C49.81 6.11607 48.7202 5.7551 47.8123 6.21986ZM42.0722 9.96375C41.5987 10.2117 41.3798 10.4395 41.1669 10.9052C40.9867 11.2996 40.9738 11.7421 40.9717 17.698L40.9694 24.0689L41.7307 26.1574C42.1495 27.3062 42.5236 28.213 42.5622 28.1726C42.6009 28.1323 43.0617 27.1599 43.5863 26.0118C44.1108 24.8637 44.6126 23.8131 44.7014 23.6771C44.8426 23.4606 44.8589 22.6658 44.8323 17.2652L44.8021 11.1006L44.5132 10.6622C44.3543 10.421 44.0372 10.1279 43.8086 10.0107C43.3076 9.75394 42.5137 9.73252 42.0722 9.96375ZM53.5058 10.0759C53.0481 10.3877 52.8399 10.6424 52.659 11.1124C52.5704 11.3425 52.5336 13.0496 52.5282 17.1816L52.5207 22.9305L52.837 23.4052C53.4783 24.3675 53.734 25.8845 53.4579 27.0878C53.3992 27.3438 51.9592 30.5519 50.2579 34.217C48.5565 37.8821 47.1656 40.948 47.1667 41.0302C47.1679 41.1123 47.4702 42.0102 47.8384 43.0255L48.508 44.8714L49.1475 45.0408C49.9044 45.2412 50.5115 45.6378 50.8793 46.1721C51.0259 46.3851 51.5045 47.5516 51.9429 48.7646C52.3814 49.9777 52.7867 51.0575 52.8436 51.1644C52.9376 51.3408 53.1024 51.3588 54.6235 51.3588H56.2999V48.9046C56.2999 46.7603 56.3231 46.4097 56.4837 46.1284C56.5847 45.9513 59.0939 43.4367 62.0597 40.5405C68.0177 34.7223 67.9853 34.7606 67.9997 33.5318C68.0106 32.6085 67.7557 31.9815 67.1312 31.3945C66.23 30.5477 64.9256 30.35 63.8526 30.8975C63.5711 31.0411 62.5588 31.9574 61.2868 33.2203C59.0195 35.4712 58.9301 35.5298 57.9609 35.3991C57.4525 35.3306 56.8461 34.875 56.5889 34.3682C56.4175 34.0306 56.4052 33.2611 56.4045 22.825C56.404 14.9711 56.3691 11.5181 56.2874 11.2217C56.0377 10.3162 55.361 9.79761 54.4286 9.79761C54.0459 9.79761 53.8095 9.86881 53.5058 10.0759ZM22.7257 38.2182C22.365 38.2895 22.0444 38.3736 22.0133 38.4048C21.9189 38.4996 22.8887 40.9152 23.3599 41.7592C23.71 42.3861 29.7839 50.6658 30.3129 51.2371C30.4221 51.3551 30.8248 51.2408 32.688 50.563C33.922 50.1142 34.9651 49.7177 35.0059 49.6819C35.0467 49.6461 34.852 48.9738 34.5732 48.1877C33.082 43.984 32.0807 42.078 30.5815 40.5898C29.3071 39.3247 27.8769 38.5786 26.0642 38.2332C25.0514 38.0401 23.6565 38.0339 22.7257 38.2182ZM38.8694 50.349C32.182 52.8016 29.5858 53.798 29.6095 53.9029C29.6388 54.0325 31.7421 59.9174 31.7821 59.9817C31.7909 59.9959 36.0233 58.4625 41.1872 56.574C46.8897 54.4884 50.6691 53.0525 50.813 52.9168C50.9705 52.7682 51.0497 52.5707 51.0497 52.3273C51.0497 51.8067 49.4202 47.344 49.1457 47.113C49.0204 47.0075 48.7626 46.931 48.5443 46.9345C48.3169 46.9382 44.3994 48.3207 38.8694 50.349ZM47.6371 49.764C47.8681 49.8705 48.1379 50.0491 48.2366 50.1608C48.5291 50.4917 48.9735 51.592 48.9865 52.0174C49.0029 52.5543 48.6062 52.9622 48.0676 52.9622C47.5741 52.9622 47.4028 52.811 47.0695 52.081L46.7971 51.4847L40.0801 53.9534C36.3856 55.3112 33.2521 56.4221 33.1167 56.4221C32.7305 56.4221 32.4596 56.2258 32.293 55.8254C32.1544 55.492 32.1578 55.4191 32.3281 55.069L32.5167 54.6816L38.7644 52.3897C46.7685 49.4534 46.4198 49.5748 46.8496 49.5723C47.0517 49.5711 47.4061 49.6573 47.6371 49.764ZM52.6331 53.6631C52.3839 54.1537 51.7926 54.6929 51.2141 54.9569L50.7872 55.1516L52.6773 55.1546C54.728 55.1576 55.1787 55.2319 55.6704 55.6476C56.2033 56.098 56.3406 56.4742 56.3468 57.5004C56.3521 58.3646 56.3351 58.4379 56.0665 58.7082C55.6822 59.0951 55.1393 59.1016 54.7634 58.724C54.5439 58.5035 54.4822 58.3198 54.4369 57.7535L54.3811 57.055L49.9066 57.06L45.4321 57.0649L41.4419 58.5326L37.4518 60.0002L47.6079 59.9781L57.7642 59.9558L58.0033 59.7155C58.2404 59.4774 58.2425 59.4506 58.2425 56.621V53.7667L57.9478 53.5121C57.655 53.259 57.6393 53.2575 55.2462 53.2575H52.8391L52.6331 53.6631Z" fill="#00F0FF"/>
</g>
<defs>
<filter id="filter0_d_1_1298" x="0" y="0.000244141" width="84" height="86" filterUnits="userSpaceOnUse" color-interpolation-filters="sRGB">
<feFlood flood-opacity="0" result="BackgroundImageFix"/>
<feColorMatrix in="SourceAlpha" type="matrix" values="0 0 0 0 0 0 0 0 0 0 0 0 0 0 0 0 0 0 127 0" result="hardAlpha"/>
<feOffset dy="10"/>
<feGaussianBlur stdDeviation="8"/>
<feComposite in2="hardAlpha" operator="out"/>
<feColorMatrix type="matrix" values="0 0 0 0 0 0 0 0 0 0.941176 0 0 0 0 1 0 0 0 0.4 0"/>
<feBlend mode="normal" in2="BackgroundImageFix" result="effect1_dropShadow_1_1298"/>
<feBlend mode="normal" in="SourceGraphic" in2="effect1_dropShadow_1_1298" result="shape"/>
</filter>
</defs>
</svg>
