<svg width="85" height="85" viewBox="0 0 85 85" fill="none" xmlns="http://www.w3.org/2000/svg">
<g filter="url(#filter0_d_1_1295)">
<path fill-rule="evenodd" clip-rule="evenodd" d="M33.599 6.20317C28.9989 7.86701 24.6024 11.1666 21.5129 15.2738C11.1946 28.9909 15.8747 48.6371 31.2625 56.2001C37.1757 59.1064 43.8689 59.7726 50.2972 58.0949C55.8011 56.6582 61.0261 53.2463 64.6144 48.7453C66.6117 46.2401 68.7857 42.1848 68.9799 40.6024C69.1259 39.4117 68.4648 38.2106 67.3869 37.7087C66.493 37.2924 65.7791 37.321 64.1878 37.8369C61.7043 38.6419 60.4627 38.8213 57.4184 38.815C55.0934 38.8101 54.5377 38.7708 53.4281 38.5326C44.6706 36.653 38.3408 30.3218 36.4672 21.5681C36.2303 20.4612 36.1903 19.8963 36.1843 17.5771C36.1766 14.5383 36.3476 13.3488 37.1574 10.8114C37.6713 9.20125 37.7019 8.49072 37.2945 7.61576C36.6568 6.24603 35.1125 5.65584 33.599 6.20317Z" fill="#00F0FF"/>
</g>
<defs>
<filter id="filter0_d_1_1295" x="0" y="0.000366211" width="85" height="85" filterUnits="userSpaceOnUse" color-interpolation-filters="sRGB">
<feFlood flood-opacity="0" result="BackgroundImageFix"/>
<feColorMatrix in="SourceAlpha" type="matrix" values="0 0 0 0 0 0 0 0 0 0 0 0 0 0 0 0 0 0 127 0" result="hardAlpha"/>
<feOffset dy="10"/>
<feGaussianBlur stdDeviation="8"/>
<feComposite in2="hardAlpha" operator="out"/>
<feColorMatrix type="matrix" values="0 0 0 0 0 0 0 0 0 0.941176 0 0 0 0 1 0 0 0 0.4 0"/>
<feBlend mode="normal" in2="BackgroundImageFix" result="effect1_dropShadow_1_1295"/>
<feBlend mode="normal" in="SourceGraphic" in2="effect1_dropShadow_1_1295" result="shape"/>
</filter>
</defs>
</svg>
