<svg width="88" height="88" viewBox="0 0 88 88" fill="none" xmlns="http://www.w3.org/2000/svg">
<g filter="url(#filter0_d_1_1301)">
<path fill-rule="evenodd" clip-rule="evenodd" d="M41.8907 6.05294C37.7407 6.45039 34.6541 7.32812 31.1595 9.10449C27.0199 11.2086 23.3053 14.5359 20.5968 18.5656C19.4499 20.2719 18.0485 23.1523 17.3756 25.1861C16.8325 26.8278 16.4011 28.6961 16.1374 30.5482C15.9542 31.8352 15.9542 36.1552 16.1374 37.4422C16.5962 40.6655 17.4487 43.489 18.7806 46.1966C20.2874 49.2599 21.7634 51.318 24.2001 53.7532C26.6103 56.1617 28.7018 57.6656 31.6523 59.1121C33.711 60.1214 35.0403 60.6126 37.1274 61.1358C42.604 62.5086 48.0967 62.2453 53.4474 60.3537C55.0694 59.7804 57.9007 58.3623 59.3563 57.3944C62.6287 55.2183 65.6329 52.1407 67.7766 48.7682C68.5653 47.5273 69.8329 44.9095 70.3499 43.4534C72.9223 36.2095 72.4746 28.4346 69.0938 21.6414C67.7294 18.8998 66.2105 16.7512 64.0779 14.5459C61.713 12.1001 59.3933 10.4127 56.2902 8.88049C53.0467 7.27899 50.0245 6.42413 46.435 6.09266C45.3194 5.98969 42.7833 5.96748 41.8907 6.05294ZM45.0601 17.9366C45.3167 18.0722 45.6817 18.3971 45.8713 18.6587L46.216 19.1342L46.2456 26.6467L46.2753 34.1591L52.0038 39.9043C56.9144 44.8291 57.7505 45.7138 57.8599 46.0998C58.0555 46.7903 58.0143 47.2487 57.7003 47.8786C57.2094 48.863 56.1791 49.341 55.0907 49.0891C54.5549 48.9652 54.3496 48.7735 48.3158 42.7641C44.8303 39.2925 41.9999 36.3864 41.8806 36.1569C41.6743 35.7597 41.6686 35.4855 41.6971 27.4392L41.7265 19.1315L42.055 18.6654C42.7183 17.7244 44.0482 17.4019 45.0601 17.9366Z" fill="#00F0FF"/>
</g>
<defs>
<filter id="filter0_d_1_1301" x="0" y="0.000244141" width="88" height="88" filterUnits="userSpaceOnUse" color-interpolation-filters="sRGB">
<feFlood flood-opacity="0" result="BackgroundImageFix"/>
<feColorMatrix in="SourceAlpha" type="matrix" values="0 0 0 0 0 0 0 0 0 0 0 0 0 0 0 0 0 0 127 0" result="hardAlpha"/>
<feOffset dy="10"/>
<feGaussianBlur stdDeviation="8"/>
<feComposite in2="hardAlpha" operator="out"/>
<feColorMatrix type="matrix" values="0 0 0 0 0 0 0 0 0 0.941176 0 0 0 0 1 0 0 0 0.4 0"/>
<feBlend mode="normal" in2="BackgroundImageFix" result="effect1_dropShadow_1_1301"/>
<feBlend mode="normal" in="SourceGraphic" in2="effect1_dropShadow_1_1301" result="shape"/>
</filter>
</defs>
</svg>
