<svg width="364" height="364" viewBox="0 0 364 364" fill="none" xmlns="http://www.w3.org/2000/svg">
<path d="M149.939 57.2198C166.906 52.8882 184.579 52.07 201.873 54.8154C219.167 57.5607 235.718 63.8118 250.509 73.1849C265.3 82.5579 278.019 94.8551 287.886 109.321C297.752 123.788 304.558 140.118 307.885 157.31L306.603 157.558C303.309 140.541 296.573 124.377 286.806 110.058C277.04 95.7382 264.45 83.5661 249.81 74.2883C235.169 65.0106 218.787 58.823 201.668 56.1055C184.55 53.3881 167.057 54.198 150.262 58.4856L149.939 57.2198Z" fill="#00F0FF"/>
<path d="M308.038 160.454L303.921 154.507L308.971 153.281L308.038 160.454Z" fill="#00F0FF"/>
</svg>
