<svg width="316" height="317" viewBox="0 0 316 317" fill="none" xmlns="http://www.w3.org/2000/svg">
<circle cx="157.5" cy="159.5" r="95.5" fill="url(#paint0_linear_282_4)"/>
<path d="M58.1077 215.939C50.2464 202.323 45.2079 187.266 43.2969 171.679C41.3859 156.093 42.6423 140.301 46.99 125.259C51.3377 110.218 58.6863 96.2396 68.5909 84.1705C78.4956 72.1014 90.7504 62.1925 104.614 55.0435C118.477 47.8946 133.66 43.6542 149.245 42.5792C164.829 41.5041 180.491 43.6166 195.281 48.7889C210.072 53.9612 223.684 62.0857 235.294 72.6707C246.904 83.2556 256.27 96.0809 262.826 110.37L262.229 110.643C255.711 96.4346 246.398 83.6822 234.855 73.1574C223.311 62.6326 209.776 54.5543 195.069 49.4114C180.363 44.2685 164.79 42.168 149.294 43.237C133.798 44.3059 118.701 48.5222 104.917 55.6305C91.1325 62.7388 78.9473 72.5914 69.099 84.5919C59.2506 96.5924 51.9438 110.491 47.6208 125.447C43.2979 140.403 42.0486 156.105 43.9487 171.603C45.8488 187.101 50.8588 202.072 58.6753 215.611L58.1077 215.939Z" fill="#373D44"/>
<circle cx="262.566" cy="111.566" r="2" transform="rotate(-69.8606 262.566 111.566)" fill="#00F0FF"/>
<defs>
<linearGradient id="paint0_linear_282_4" x1="228.804" y1="11.5317" x2="75.3033" y2="180.191" gradientUnits="userSpaceOnUse">
<stop stop-color="#196FC5"/>
<stop offset="1" stop-color="#7F3F96"/>
</linearGradient>
</defs>
</svg>
