<svg width="45" height="25" viewBox="0 0 45 25" fill="none" xmlns="http://www.w3.org/2000/svg">
  <g clip-path="url(#clip0_2285_17)">
  <path d="M37.5 5V20H5V5H37.5ZM40 16.25H42.5V8.75H40V3.125C40 2.94271 39.9414 2.79297 39.8242 2.67578C39.707 2.55859 39.5573 2.5 39.375 2.5H3.125C2.94271 2.5 2.79297 2.55859 2.67578 2.67578C2.55859 2.79297 2.5 2.94271 2.5 3.125V21.875C2.5 22.0573 2.55859 22.207 2.67578 22.3242C2.79297 22.4414 2.94271 22.5 3.125 22.5H39.375C39.5573 22.5 39.707 22.4414 39.8242 22.3242C39.9414 22.207 40 22.0573 40 21.875V16.25ZM45 8.75V16.25C45 16.9401 44.7559 17.5293 44.2676 18.0176C43.7793 18.5059 43.1901 18.75 42.5 18.75V21.875C42.5 22.7344 42.194 23.4701 41.582 24.082C40.9701 24.694 40.2344 25 39.375 25H3.125C2.26562 25 1.52995 24.694 0.917969 24.082C0.30599 23.4701 0 22.7344 0 21.875V3.125C0 2.26562 0.30599 1.52995 0.917969 0.917969C1.52995 0.30599 2.26562 0 3.125 0H39.375C40.2344 0 40.9701 0.30599 41.582 0.917969C42.194 1.52995 42.5 2.26562 42.5 3.125V6.25C43.1901 6.25 43.7793 6.49414 44.2676 6.98242C44.7559 7.4707 45 8.0599 45 8.75Z" fill="white"/>
  </g>
  <defs>
  <clipPath id="clip0_2285_17">
  <rect width="45" height="25" fill="white"/>
  </clipPath>
  </defs>
  </svg>
  
  
  