<svg width="35" height="35" viewBox="0 0 35 35" fill="none" xmlns="http://www.w3.org/2000/svg">
  <path d="M10.5 22.75H26.25C27.2125 22.75 28 23.5375 28 24.5C28 25.4625 27.2125 26.25 26.25 26.25H8.75C7.7875 26.25 7 25.4625 7 24.5V7H3.5C2.5375 7 1.75 6.2125 1.75 5.25C1.75 4.2875 2.5375 3.5 3.5 3.5H8.75C9.7125 3.5 10.5 4.2875 10.5 5.25V8.75H33.25L26.25 21H10.5V22.75ZM9.625 28C11.0775 28 12.25 29.1725 12.25 30.625C12.25 32.0775 11.0775 33.25 9.625 33.25C8.1725 33.25 7 32.0775 7 30.625C7 29.1725 8.1725 28 9.625 28ZM25.375 28C26.8275 28 28 29.1725 28 30.625C28 32.0775 26.8275 33.25 25.375 33.25C23.9225 33.25 22.75 32.0775 22.75 30.625C22.75 29.1725 23.9225 28 25.375 28Z" fill="white"/>
  </svg>
  