<svg width="29" height="29" viewBox="0 0 29 29" fill="none" xmlns="http://www.w3.org/2000/svg">
  <path d="M14.5175 0.28125C15.5879 0.292917 16.654 0.416875 17.6996 0.650208C17.922 0.699864 18.1234 0.817775 18.2756 0.987463C18.4278 1.15715 18.5231 1.37014 18.5483 1.59667L18.7963 3.82354C18.8313 4.1375 18.9395 4.43885 19.1122 4.70336C19.2849 4.96787 19.5173 5.18815 19.7907 5.34646C20.064 5.50478 20.3707 5.59672 20.6861 5.61488C21.0015 5.63305 21.3167 5.57693 21.6065 5.45104L23.6481 4.55417C23.8556 4.4628 24.0863 4.43814 24.3083 4.4836C24.5304 4.52906 24.7329 4.64239 24.8877 4.80792C26.3637 6.3846 27.4631 8.27529 28.1033 10.3379C28.1702 10.5548 28.168 10.7872 28.0969 11.0028C28.0259 11.2183 27.8895 11.4065 27.7067 11.541L25.8969 12.8769C25.6419 13.0638 25.4345 13.3081 25.2916 13.5901C25.1487 13.8721 25.0742 14.1838 25.0742 14.5C25.0742 14.8162 25.1487 15.1279 25.2916 15.4099C25.4345 15.6919 25.6419 15.9362 25.8969 16.1231L27.7096 17.4575C27.8927 17.5922 28.0292 17.7806 28.1003 17.9964C28.1714 18.2123 28.1735 18.445 28.1063 18.6621C27.4664 20.7246 26.3675 22.6153 24.8921 24.1921C24.7375 24.3576 24.5354 24.471 24.3136 24.5167C24.0919 24.5624 23.8614 24.5381 23.654 24.4473L21.6036 23.5475C21.3142 23.4206 20.9991 23.3637 20.6836 23.3812C20.3682 23.3988 20.0613 23.4903 19.7878 23.6485C19.5143 23.8067 19.2819 24.0271 19.1094 24.2917C18.9369 24.5564 18.8291 24.858 18.7948 25.1721L18.5469 27.3975C18.5221 27.6214 18.4289 27.8321 18.2798 28.001C18.1308 28.1699 17.9332 28.2886 17.7142 28.341C15.602 28.8446 13.401 28.8446 11.2888 28.341C11.0694 28.2889 10.8716 28.1703 10.7222 28.0014C10.5729 27.8325 10.4794 27.6216 10.4546 27.3975L10.2081 25.175C10.1723 24.8619 10.0636 24.5616 9.89071 24.2981C9.7178 24.0347 9.48552 23.8154 9.21252 23.658C8.93952 23.5006 8.63342 23.4094 8.31878 23.3917C8.00415 23.374 7.68975 23.4304 7.40084 23.5562L5.35043 24.4546C5.14284 24.5458 4.91205 24.5702 4.68997 24.5245C4.4679 24.4788 4.26552 24.3651 4.11084 24.1994C2.63519 22.6207 1.53675 20.728 0.898134 18.6635C0.8309 18.4464 0.83297 18.2138 0.904059 17.9979C0.975147 17.782 1.11172 17.5936 1.2948 17.459L3.10751 16.1231C3.36249 15.9362 3.56986 15.6919 3.71279 15.4099C3.85573 15.1279 3.93021 14.8162 3.93021 14.5C3.93021 14.1838 3.85573 13.8721 3.71279 13.5901C3.56986 13.3081 3.36249 13.0638 3.10751 12.8769L1.2948 11.544C1.11172 11.4093 0.975147 11.2209 0.904059 11.005C0.83297 10.7891 0.8309 10.5565 0.898134 10.3394C1.5384 8.27675 2.63781 6.38606 4.11376 4.80938C4.26861 4.64385 4.47107 4.53052 4.69313 4.48506C4.9152 4.4396 5.1459 4.46426 5.35334 4.55563L7.39501 5.4525C7.68525 5.57831 8.00094 5.6343 8.31674 5.61596C8.63254 5.59762 8.93964 5.50547 9.21336 5.34691C9.48709 5.18835 9.71981 4.9678 9.89283 4.70298C10.0658 4.43815 10.1743 4.13644 10.2096 3.82208L10.4575 1.59667C10.4825 1.36968 10.578 1.15623 10.7304 0.986229C10.8829 0.816232 11.0848 0.698223 11.3077 0.64875C12.3519 0.417361 13.4218 0.294861 14.5175 0.28125ZM14.5 10.125C13.3397 10.125 12.2269 10.5859 11.4064 11.4064C10.5859 12.2269 10.125 13.3397 10.125 14.5C10.125 15.6603 10.5859 16.7731 11.4064 17.5936C12.2269 18.4141 13.3397 18.875 14.5 18.875C15.6603 18.875 16.7731 18.4141 17.5936 17.5936C18.4141 16.7731 18.875 15.6603 18.875 14.5C18.875 13.3397 18.4141 12.2269 17.5936 11.4064C16.7731 10.5859 15.6603 10.125 14.5 10.125Z" fill="white"/>
  </svg>
  
  
  