<svg width="38" height="34" viewBox="0 0 38 34" fill="none" xmlns="http://www.w3.org/2000/svg">
<path fill-rule="evenodd" clip-rule="evenodd" d="M13.2989 0.0172673C6.29926 0.293372 0.928623 3.03789 0.123265 6.75034C-0.0410882 7.50798 -0.0410882 26.5025 0.123265 27.2601C0.564582 29.2942 2.4579 31.1453 5.3559 32.3758C9.69254 34.2171 16.1575 34.5282 20.982 33.1277C21.3495 33.0211 21.7201 32.9188 21.8057 32.9006C21.8913 32.8823 22.2922 33.0049 22.6965 33.173C25.6169 34.3874 29.1611 34.2445 32.0057 32.7978C36.8468 30.3356 39.1363 24.8661 37.4482 19.796C36.5506 17.1003 34.332 14.6336 31.7307 13.4392C30.9612 13.0858 29.7002 12.6806 29.0374 12.5737L28.5273 12.4914L28.499 9.65607C28.4741 7.16903 28.4542 6.77172 28.3369 6.42204C27.5691 4.13412 25.3189 2.29772 21.882 1.15445C19.4449 0.343606 16.1366 -0.0946534 13.2989 0.0172673ZM17.4188 3.30508C21.9758 3.96559 25.3273 5.83562 25.3239 7.71609C25.3208 9.48957 22.3012 11.3174 18.1983 12.0294C16.7868 12.2744 16.1104 12.3252 14.2639 12.3252C12.4174 12.3252 11.741 12.2744 10.3295 12.0294C6.22659 11.3174 3.20699 9.48957 3.20388 7.71609C3.20016 5.64766 7.28983 3.60605 12.3307 3.15989C13.5086 3.05565 16.2344 3.13343 17.4188 3.30508ZM3.78884 13.0449C5.27098 13.9372 7.68846 14.7381 10.0326 15.1135C11.5223 15.3521 12.4871 15.4239 14.2268 15.4258C16.2588 15.428 17.4819 15.3145 19.5345 14.9335C19.7892 14.8862 19.782 14.8972 19.1735 15.4922C18.4522 16.1972 17.8112 17.0051 17.3401 17.8024C17.0853 18.234 16.9597 18.377 16.8047 18.4125C16.3677 18.5124 13.2346 18.5467 12.2886 18.462C7.93522 18.072 4.366 16.5724 3.42776 14.739C3.21917 14.3314 3.20313 14.2438 3.20313 13.5142C3.20313 13.082 3.21664 12.7285 3.2332 12.7285C3.24975 12.7285 3.49977 12.8708 3.78884 13.0449ZM28.3497 15.5926C31.6854 16.2105 34.2695 18.8249 34.756 22.0741C34.8908 22.9741 34.8089 24.339 34.5687 25.1963C33.1942 30.1029 27.476 32.3992 22.9668 29.8554C19.0588 27.6506 17.8411 22.6362 20.3211 18.9593C21.5216 17.1792 23.515 15.9157 25.6898 15.5562C26.2851 15.4578 27.7289 15.4776 28.3497 15.5926ZM4.05682 19.3819C6.7189 20.8567 10.9743 21.7479 14.7703 21.6256L15.9818 21.5865L15.943 21.8511C15.8535 22.4605 15.8288 23.3903 15.8859 24.0003C15.9195 24.3591 15.9379 24.6642 15.9267 24.6782C15.9157 24.6923 15.1779 24.7038 14.2872 24.7039C11.7929 24.704 9.82112 24.4223 7.82186 23.7801C5.56598 23.0556 3.92728 21.9883 3.40015 20.9003C3.22355 20.5357 3.20313 20.4097 3.20313 19.6834V18.8732L3.40728 19.0041C3.51959 19.0762 3.81185 19.2462 4.05682 19.3819ZM4.53919 25.8127C7.43555 27.2316 10.8051 27.8683 14.9835 27.7864L16.8535 27.7498L17.2104 28.3758C17.4066 28.7201 17.8244 29.3345 18.1389 29.7411C18.6022 30.3402 18.6867 30.4875 18.5844 30.5178C18.5149 30.5383 17.9737 30.6274 17.3817 30.7157C16.4673 30.8521 15.9982 30.8763 14.2639 30.8763C12.5289 30.8763 12.061 30.8522 11.1461 30.7156C7.22109 30.1294 4.31352 28.7775 3.43029 27.128C3.21546 26.7268 3.20313 26.6589 3.20313 25.8741V25.0444L3.51863 25.2559C3.69211 25.3722 4.15139 25.6228 4.53919 25.8127Z" fill="white"/>
</svg>
