<svg width="44" height="39" viewBox="0 0 44 39" fill="none" xmlns="http://www.w3.org/2000/svg">
<path fill-rule="evenodd" clip-rule="evenodd" d="M20.4876 0.116638C20.2985 0.203228 18.0549 2.08141 15.5018 4.29041L10.8598 8.30687L9.12817 8.31021C6.34667 8.31556 5.21368 8.48606 3.98277 9.08451C2.13947 9.98064 0.874873 11.4749 0.218288 13.5323C0.0324368 14.1148 0.0317491 14.148 0.00570233 23.3019C-0.0114043 29.349 0.0100864 32.6783 0.0687131 33.0468C0.525778 35.9203 2.68878 38.1768 5.62759 38.846C6.27162 38.9927 7.04511 39 21.906 39C36.8779 39 37.5287 38.9937 38.0141 38.8447C39.4146 38.4147 40.3807 37.485 40.9288 36.0397C41.0882 35.6194 41.1079 35.3352 41.1413 32.9709L41.178 30.3654L41.4493 30.2774C41.829 30.154 42.6894 29.5094 43.0401 29.0854C43.4036 28.6458 43.7744 27.8716 43.9021 27.285C44.0311 26.6927 44.0333 20.677 43.9047 20.0703C43.8531 19.827 43.6748 19.3561 43.5083 19.0238C43.1501 18.3087 42.3088 17.4853 41.6197 17.1752L41.1795 16.9771L41.1409 14.3779C41.0992 11.5753 41.0859 11.4859 40.5587 10.4821C40.3087 10.0061 39.4192 9.14213 38.9292 8.89931C37.8629 8.37092 37.8674 8.37142 34.3986 8.33334L31.2029 8.29819L26.576 4.29375C24.0311 2.09134 21.8467 0.235877 21.7216 0.170579C21.3262 -0.0360011 20.8653 -0.0561247 20.4876 0.116638ZM24.0007 5.80854L26.9017 8.31355H21.0341C17.6414 8.31355 15.201 8.28249 15.2482 8.2399C16.075 7.49433 20.9872 3.30352 21.0343 3.30352C21.0703 3.30352 22.4052 4.43078 24.0007 5.80854ZM37.6745 11.435C38.216 11.8361 38.239 11.9604 38.239 14.4899V16.7471H35.6995C33.7183 16.7471 33.0142 16.7762 32.4973 16.8794C29.7001 17.4378 27.502 19.5928 26.9305 22.3368C26.7404 23.2495 26.7978 24.702 27.0589 25.5839C27.767 27.9756 29.7691 29.8372 32.3075 30.4641C32.8469 30.5973 33.3849 30.6307 35.5994 30.6683L38.2465 30.7134L38.2213 33.0346C38.1974 35.2282 38.1863 35.3685 38.0187 35.5862C37.9213 35.713 37.7347 35.8941 37.6041 35.9888L37.3668 36.161L21.9338 36.1825C6.64934 36.2039 6.49538 36.2025 5.9374 36.0351C4.57832 35.6273 3.54213 34.6411 3.06615 33.3024L2.86526 32.7375V23.7194C2.86526 15.2062 2.87411 14.6733 3.02317 14.2003C3.47551 12.7648 4.63592 11.6682 6.1125 11.2807C6.49246 11.181 8.9332 11.1653 21.9557 11.1786L37.3498 11.1943L37.6745 11.435ZM40.2444 19.6165C40.5714 19.7492 40.962 20.1706 41.0543 20.4902C41.1383 20.7813 41.1383 26.574 41.0543 26.8651C40.962 27.1847 40.5714 27.6061 40.2444 27.7388C40.0238 27.8283 39.255 27.8527 36.6547 27.8527C33.421 27.8527 33.3312 27.8483 32.7107 27.6569C31.5117 27.287 30.6339 26.547 30.093 25.4501C28.9359 23.1033 30.2269 20.4082 32.8663 19.6606C33.3158 19.5333 33.805 19.5137 36.6729 19.5086C39.2688 19.5039 40.023 19.5267 40.2444 19.6165ZM33.6076 22.3451C32.4961 22.5874 32.1519 24.0709 33.0481 24.7558C33.6657 25.2278 34.4254 25.1625 34.9883 24.5892C35.5019 24.066 35.503 23.2825 34.9908 22.7328C34.6793 22.3984 34.1035 22.237 33.6076 22.3451Z" fill="white"/>
</svg>
