<svg width="35" height="31" viewBox="0 0 35 31" fill="none" xmlns="http://www.w3.org/2000/svg">
  <path d="M31.5273 6.75H5.46875C4.86445 6.75 4.375 6.26055 4.375 5.65625C4.375 5.05195 4.86445 4.5625 5.46875 4.5625H31.7188C32.323 4.5625 32.8125 4.07305 32.8125 3.46875C32.8125 1.65654 31.3435 0.1875 29.5312 0.1875H4.375C1.9585 0.1875 0 2.146 0 4.5625V26.4375C0 28.854 1.9585 30.8125 4.375 30.8125H31.5273C33.4428 30.8125 35 29.3407 35 27.5312V10.0312C35 8.22178 33.4428 6.75 31.5273 6.75ZM28.4375 20.9688C27.2296 20.9688 26.25 19.9892 26.25 18.7812C26.25 17.5733 27.2296 16.5938 28.4375 16.5938C29.6454 16.5938 30.625 17.5733 30.625 18.7812C30.625 19.9892 29.6454 20.9688 28.4375 20.9688Z" fill="white"/>
  </svg>
  