<svg width="36" height="36" viewBox="0 0 36 36" fill="none" xmlns="http://www.w3.org/2000/svg">
<path fill-rule="evenodd" clip-rule="evenodd" d="M11.7622 0.120866C10.8742 0.242258 10.2005 0.400417 9.21309 0.719403C5.92358 1.78216 2.87762 4.45828 1.35464 7.62372C-0.180288 10.8139 -0.420495 14.4565 0.683502 17.8028C1.00353 18.773 1.90217 20.5172 2.54732 21.4207C3.26484 22.4256 4.649 23.8037 5.66557 24.5257C7.13623 25.57 8.98901 26.377 10.8145 26.7683C11.8477 26.9898 14.2186 27.075 15.3115 26.9299C16.3421 26.7931 17.7533 26.4157 18.7389 26.0135L19.5726 25.6731L24.3805 30.4593C28.5694 34.6291 29.2556 35.2787 29.71 35.5047C31.4587 36.374 33.4082 36.0835 34.7398 34.7552C36.0652 33.4331 36.3709 31.5149 35.5342 29.7704C35.3442 29.3743 34.5549 28.5455 30.4818 24.4653L25.6546 19.6296L25.9033 19.0877C28.2815 13.9057 27.0223 7.58928 22.8314 3.67782C19.8471 0.892653 15.75 -0.423979 11.7622 0.120866ZM15.8397 3.24311C20.1746 4.12437 23.4967 7.53801 24.2581 11.8934C24.4218 12.8304 24.4171 14.5219 24.2481 15.5088C23.6011 19.2842 20.9103 22.4609 17.2785 23.737C15.9222 24.2136 15.3762 24.2987 13.6846 24.297C12.2706 24.2955 12.0623 24.2758 11.2491 24.0656C9.13018 23.518 7.65609 22.6827 6.15802 21.1808C4.09253 19.1101 3.04887 16.6047 3.04612 13.7101C3.04327 10.8028 4.12061 8.19215 6.15977 6.16485C8.72206 3.61754 12.3277 2.52919 15.8397 3.24311ZM13.1009 4.65171C12.1679 5.15086 12.191 6.50243 13.1413 7.02076C13.2332 7.07087 13.6846 7.14057 14.1443 7.17567C14.6039 7.21068 15.2057 7.29798 15.4815 7.36959C16.2767 7.57603 17.4257 8.18599 18.1444 8.78311C18.5508 9.12077 18.9094 9.34913 19.0847 9.38198C20.0488 9.5624 20.8502 8.75443 20.668 7.78563C20.5198 6.9975 18.5507 5.57365 16.7725 4.96877C15.4183 4.50814 13.6541 4.35581 13.1009 4.65171ZM33.1827 30.9267C33.4596 31.3664 33.4415 32.1195 33.1432 32.5692C32.8181 33.0593 32.3887 33.2971 31.8236 33.2999C31.5476 33.3014 31.2438 33.2438 31.069 33.157C30.9081 33.0772 28.7942 31.0325 26.3714 28.6135L21.9663 24.2152L22.5865 23.6913C22.9277 23.403 23.4432 22.8888 23.7321 22.5485L24.2573 21.9297L28.6281 26.2823C31.032 28.6762 33.0815 30.7662 33.1827 30.9267Z" fill="white"/>
</svg>
