<svg width="36" height="36" viewBox="0 0 36 36" fill="none" xmlns="http://www.w3.org/2000/svg">
  <path fill-rule="evenodd" clip-rule="evenodd" d="M18 36C20.3638 36 22.7044 35.5344 24.8883 34.6298C27.0722 33.7252 29.0565 32.3994 30.7279 30.7279C32.3994 29.0565 33.7252 27.0722 34.6298 24.8883C35.5344 22.7044 36 20.3638 36 18C36 15.6362 35.5344 13.2956 34.6298 11.1117C33.7252 8.92784 32.3994 6.94353 30.7279 5.27208C29.0565 3.60062 27.0722 2.27475 24.8883 1.37017C22.7044 0.465584 20.3638 -3.52233e-08 18 0C13.2261 7.11366e-08 8.64773 1.89642 5.27208 5.27208C1.89642 8.64773 0 13.2261 0 18C0 22.7739 1.89642 27.3523 5.27208 30.7279C8.64773 34.1036 13.2261 36 18 36ZM17.536 25.28L27.536 13.28L24.464 10.72L15.864 21.038L11.414 16.586L8.586 19.414L14.586 25.414L16.134 26.962L17.536 25.28Z" fill="white"/>
  </svg>
  