<svg width="35" height="37" viewBox="0 0 35 37" fill="none" xmlns="http://www.w3.org/2000/svg">
<path fill-rule="evenodd" clip-rule="evenodd" d="M16.7791 0.0514062C15.2664 0.291232 13.7474 0.945289 12.5202 1.88526C9.61752 4.10847 8.34639 8.01837 9.36037 11.6048C10.6026 15.9987 14.9303 18.816 19.3781 18.1263C23.0499 17.5569 25.919 14.879 26.8374 11.1641C27.0906 10.1399 27.0926 8.07213 26.8414 7.05727C25.976 3.56078 23.335 0.91731 19.9636 0.172951C19.2392 0.0130664 17.4516 -0.0552105 16.7791 0.0514062ZM19.6813 2.78249C21.4488 3.26165 23.0349 4.59791 23.8344 6.28151C24.3275 7.31978 24.4367 7.83377 24.434 9.10216C24.4312 10.3732 24.3185 10.9034 23.8344 11.9228C22.6187 14.4828 19.8076 15.993 17.0838 15.5492C13.6319 14.9868 11.2084 11.7748 11.6384 8.33161C11.9918 5.50232 14.0081 3.30799 16.8178 2.6948C17.4745 2.55147 19.0017 2.59821 19.6813 2.78249ZM27.1424 17.2598C22.8478 18.336 20.9375 23.3194 23.3562 27.1371L23.5933 27.5113L23.5936 31.8276C23.5939 35.9906 23.5996 36.1533 23.7542 36.4096C23.9906 36.8018 24.3629 36.9997 24.8651 37C25.278 37.0003 25.3374 36.968 26.9785 35.8505L28.667 34.7006L30.3039 35.8263C31.8623 36.8979 31.9629 36.9537 32.4006 36.9856C32.9666 37.0271 33.3588 36.8165 33.5978 36.3428C33.7498 36.0414 33.7566 35.8443 33.7566 31.7288V27.4297L33.9936 27.0555C34.7439 25.8714 35.0081 24.9269 34.9998 23.4591C34.9942 22.4523 34.9718 22.2914 34.74 21.5829C34.3782 20.477 33.9991 19.8678 33.1112 18.965C32.453 18.2957 32.2308 18.1273 31.577 17.8017C31.1565 17.5923 30.5254 17.348 30.1744 17.2587C29.3378 17.0459 27.9943 17.0463 27.1424 17.2598ZM29.7969 19.8613C32.0407 20.5675 33.1286 23.2652 32.0088 25.346C31.4944 26.3018 30.3286 27.1216 29.2195 27.3075C27.814 27.543 26.2352 26.8199 25.4485 25.5801C24.3237 23.8073 24.9211 21.2862 26.7183 20.221C27.5893 19.7048 28.8368 19.5591 29.7969 19.8613ZM10.1373 20.938C5.75249 21.4625 1.91925 24.6721 0.534217 28.9788C0.0878398 30.3668 0.000241938 31.1082 8.06166e-05 33.4987L0 35.6664L0.2173 35.9548C0.667227 36.5521 0.0555756 36.5156 9.22422 36.4916C17.3911 36.4703 17.4529 36.4689 17.674 36.3019C18.0973 35.9823 18.2294 35.7216 18.2294 35.2057C18.2294 34.6898 18.0973 34.4291 17.674 34.1095C17.4533 33.9429 17.3834 33.9412 9.98469 33.9197L2.51799 33.898L2.56252 32.6145C2.58696 31.9086 2.66294 31.074 2.73142 30.7599C3.51964 27.1448 6.13708 24.4888 9.74182 23.6461C10.2201 23.5342 10.9638 23.5016 13.8881 23.4641C17.3245 23.42 17.4595 23.4123 17.6742 23.2501C18.0974 22.9303 18.2294 22.6697 18.2294 22.1539C18.2294 21.6381 18.0973 21.3774 17.6741 21.0577C17.4582 20.8946 17.3504 20.8892 14.0897 20.8784C12.2407 20.8724 10.4621 20.8992 10.1373 20.938ZM28.6346 29.9338C29.8082 29.9313 30.3141 29.848 31.0343 29.5387C31.1664 29.482 31.1754 29.5994 31.1754 31.3678C31.1754 32.8583 31.1541 33.2444 31.0746 33.1955C31.0192 33.1614 30.5896 32.8671 30.12 32.5415C29.24 31.9314 28.8234 31.7695 28.3792 31.8647C28.2387 31.8948 27.6852 32.22 27.1491 32.5874L26.1745 33.2554V31.3841V29.5128L26.7996 29.7246C27.3637 29.9157 27.5427 29.9361 28.6346 29.9338Z" fill="white"/>
</svg>
