<svg width="36" height="36" viewBox="0 0 36 36" fill="none" xmlns="http://www.w3.org/2000/svg">
<path fill-rule="evenodd" clip-rule="evenodd" d="M2.42622 0.101282C1.83408 0.249425 1.39082 0.5024 0.944328 0.947109C0.484471 1.40518 0.206475 1.90958 0.0784127 2.51839C0.0220821 2.78613 0 7.43333 0 19.0264C0 35.0591 0.000914229 35.1637 0.141565 35.4393C0.232706 35.618 0.382077 35.7673 0.560774 35.8585C0.835957 35.9988 0.948406 36 13.7134 36C26.4785 36 26.5909 35.9988 26.8661 35.8585C27.0448 35.7673 27.1942 35.618 27.2853 35.4393C27.4224 35.1707 27.4269 35.0323 27.4269 31.0656V26.9693L27.8048 26.5805C28.1129 26.2636 28.8687 25.0033 31.8965 19.7584C33.939 16.2201 35.6856 13.1414 35.7776 12.9167C36.3933 11.4151 35.6885 9.65765 34.182 8.93831C33.6666 8.69223 33.6263 8.68463 32.8382 8.68463C32.0389 8.68463 32.0171 8.68892 31.4835 8.95259C30.6151 9.38176 30.4368 9.61012 28.9432 12.2058C28.2108 13.4788 27.5699 14.5828 27.5191 14.6591C27.4424 14.7743 27.4269 14.1431 27.4269 10.9151V7.03235H29.1175C30.6731 7.03235 30.8302 7.02103 31.0856 6.89082C31.2643 6.7997 31.4137 6.65036 31.5048 6.4717C31.6348 6.2169 31.6464 6.0592 31.6464 4.54261C31.6464 3.57726 31.6133 2.73621 31.5666 2.51839C31.3074 1.30738 30.3334 0.333024 29.1288 0.0797675C28.5613 -0.0396185 2.90661 -0.0188771 2.42622 0.101282ZM25.4175 2.30402C25.3864 2.4104 25.3504 6.09463 25.3376 10.4912L25.3142 18.4851L23.9796 20.797L22.6449 23.109L21.9045 26.2323C21.4972 27.9502 21.147 29.4111 21.1261 29.4788C21.0902 29.595 20.6451 29.6018 13.073 29.6018C5.17875 29.6018 5.05364 29.6039 4.78029 29.7433C4.46826 29.9025 4.21952 30.3076 4.21952 30.6565C4.21952 31.0053 4.46826 31.4104 4.78029 31.5696C5.05393 31.7091 5.17756 31.7111 13.6086 31.7111C21.3847 31.7111 22.1798 31.7007 22.3845 31.5961C22.5083 31.5329 23.1159 31.0047 23.7348 30.4224C24.3536 29.84 24.9629 29.2686 25.0885 29.1525L25.3171 28.9415V31.4161V33.8907H13.7134H2.10976V18.4197C2.10976 3.05928 2.11074 2.94679 2.25118 2.6716C2.33761 2.50222 2.49486 2.34051 2.65555 2.25565C2.91414 2.11917 3.10676 2.11685 14.1964 2.11376L25.4741 2.11067L25.4175 2.30402ZM28.9758 2.2522C29.4438 2.4909 29.5366 2.76968 29.5366 3.93591V4.92306H28.4817H27.4269V3.93591C27.4269 3.08572 27.4465 2.9103 27.5683 2.6716C27.8282 2.16227 28.4414 1.97961 28.9758 2.2522ZM12.7289 4.3996C11.4665 4.67065 10.2189 5.65013 9.64406 6.82142C8.88715 8.3636 9.00951 10.0504 9.98401 11.5081L10.1325 11.7302L9.74863 11.9059C8.87751 12.3046 7.94057 13.1029 7.38894 13.9163C6.69054 14.9461 6.40277 15.8625 6.34847 17.2295C6.31366 18.1058 6.32259 18.2042 6.46156 18.4765C6.56191 18.6731 6.70552 18.8197 6.89005 18.9138C7.16228 19.0527 7.29175 19.0553 13.7134 19.0553C20.1351 19.0553 20.2646 19.0527 20.5368 18.9138C20.7213 18.8197 20.8649 18.6731 20.9653 18.4765C21.1043 18.2042 21.1132 18.1058 21.0784 17.2295C21.0216 15.7984 20.696 14.8186 19.9334 13.7841C19.3323 12.9685 18.7263 12.4537 17.7761 11.9514L17.3029 11.7012L17.4835 11.4354C17.9761 10.7107 18.2821 9.72395 18.2821 8.86041C18.2821 7.17944 17.2564 5.52955 15.7529 4.79193C14.7748 4.31207 13.7535 4.1796 12.7289 4.3996ZM14.7938 6.67082C15.322 6.93076 15.6957 7.31612 15.9543 7.86763C16.1091 8.19767 16.1397 8.36149 16.1397 8.86189C16.1397 9.3961 16.1148 9.51141 15.9104 9.92652C15.6436 10.4684 15.2623 10.8402 14.7064 11.1008C14.3765 11.2554 14.2123 11.2861 13.7134 11.2861C13.2133 11.2861 13.0525 11.2559 12.7289 11.1015C12.1552 10.8277 11.7829 10.4677 11.5187 9.93116C11.3118 9.51099 11.2872 9.39729 11.2872 8.86189C11.2872 8.36346 11.3179 8.19725 11.4701 7.87284C12.0811 6.57056 13.5273 6.04745 14.7938 6.67082ZM33.4117 10.9184C33.5431 11.0061 33.7077 11.1881 33.7776 11.3227C33.986 11.7246 33.9052 12.0537 33.3729 12.97C33.1134 13.4167 32.88 13.782 32.854 13.7818C32.7641 13.7813 31.1265 12.8206 31.1064 12.7566C31.0621 12.6159 32.0405 11.0758 32.2741 10.9184C32.5956 10.7018 33.0875 10.7018 33.4117 10.9184ZM16.345 13.6285C17.768 14.1556 18.6034 15.1579 18.9487 16.7527L18.9905 16.946H13.7165H8.44255L8.48235 16.7175C8.76541 15.0931 9.96214 13.8458 11.5685 13.5009C11.7232 13.4677 12.7676 13.4481 13.8892 13.4574C15.7915 13.4732 15.9567 13.4848 16.345 13.6285ZM30.914 15.1325C31.5532 15.5019 31.78 15.6677 31.7507 15.7442C31.7208 15.822 26.9645 24.0911 26.9065 24.1662C26.8901 24.1874 25.2372 23.2222 25.1632 23.1482C25.1215 23.1065 26.006 21.5075 27.5386 18.8538C28.8815 16.5284 29.9932 14.6258 30.0087 14.6258C30.0243 14.6258 30.4317 14.8538 30.914 15.1325ZM4.76531 21.3096C4.4684 21.4663 4.21952 21.8812 4.21952 22.2193C4.21952 22.5682 4.46826 22.9732 4.78029 23.1324C5.05287 23.2714 5.18122 23.2739 11.9553 23.2739C18.7294 23.2739 18.8577 23.2714 19.1303 23.1324C19.4423 22.9732 19.6911 22.5682 19.6911 22.2193C19.6911 21.8704 19.4423 21.4653 19.1303 21.3062C18.8576 21.1671 18.7325 21.1647 11.9405 21.1677C5.19739 21.1707 5.02186 21.1743 4.76531 21.3096ZM24.9686 25.499L25.531 25.8258L24.7108 26.6064C24.2598 27.0358 23.8673 27.3963 23.8389 27.4076C23.7978 27.424 24.185 25.6211 24.3001 25.2602C24.3399 25.1353 24.3465 25.1376 24.9686 25.499ZM4.76531 25.5282C4.4684 25.6849 4.21952 26.0997 4.21952 26.4379C4.21952 26.7867 4.46826 27.1918 4.78029 27.351C5.05287 27.49 5.18122 27.4925 11.9553 27.4925C18.7294 27.4925 18.8577 27.49 19.1303 27.351C19.4423 27.1918 19.6911 26.7867 19.6911 26.4379C19.6911 26.089 19.4423 25.6839 19.1303 25.5247C18.8576 25.3857 18.7325 25.3833 11.9405 25.3863C5.19739 25.3893 5.02186 25.3928 4.76531 25.5282Z" fill="white"/>
</svg>
