<svg width="785" height="785" viewBox="0 0 785 785" fill="none" xmlns="http://www.w3.org/2000/svg">
<circle cx="392.486" cy="392.487" r="219" fill="#272B30"/>
<path d="M264.848 657.335C229.017 640.067 197.063 615.708 170.919 585.733C144.776 555.758 124.986 520.789 112.748 482.944C100.511 445.099 96.0794 405.165 99.7226 365.557C103.366 325.95 115.008 287.494 133.944 252.517C152.88 217.539 178.717 186.768 209.89 162.065C241.063 137.362 276.925 119.241 315.304 108.799C353.683 98.3572 393.782 95.8115 433.174 101.316C472.566 106.82 510.431 120.261 544.478 140.823L543.614 142.254C509.76 121.808 472.11 108.444 432.943 102.971C393.775 97.498 353.904 100.029 315.743 110.412C277.581 120.794 241.924 138.812 210.928 163.375C179.932 187.937 154.242 218.534 135.414 253.312C116.585 288.091 105.009 326.329 101.387 365.711C97.7645 405.093 102.171 444.8 114.339 482.43C126.507 520.06 146.184 554.829 172.179 584.634C198.174 614.439 229.946 638.659 265.573 655.829L264.848 657.335Z" fill="#373D44"/>
<path d="M708.486 392.487C708.486 441.126 697.258 489.108 675.677 532.697C654.096 576.286 622.744 614.304 584.063 643.792C545.382 673.28 500.416 693.44 452.668 702.703C404.919 711.966 355.677 710.082 308.776 697.197C261.874 684.313 218.581 660.775 182.266 628.418C145.952 596.061 117.596 555.757 99.4092 510.647C81.222 465.536 73.6935 416.836 77.4103 368.34C81.127 319.843 95.9886 272.859 120.837 231.047L121.871 231.661C97.1171 273.314 82.3121 320.12 78.6095 368.432C74.9069 416.744 82.4067 465.258 100.525 510.197C118.643 555.136 146.89 595.286 183.066 627.52C219.243 659.754 262.372 683.202 309.094 696.038C355.817 708.873 404.872 710.75 452.439 701.522C500.006 692.295 544.8 672.211 583.334 642.835C621.868 613.46 653.1 575.586 674.599 532.163C696.099 488.74 707.284 440.941 707.284 392.487H708.486Z" fill="#28333E"/>
<circle cx="266.486" cy="657.487" r="2" fill="#00F0FF"/>
<circle cx="707.487" cy="392.487" r="2" fill="#00F0FF"/>
</svg>
