<svg width="826" height="452" viewBox="0 0 826 452" fill="none" xmlns="http://www.w3.org/2000/svg">
<path fill-rule="evenodd" clip-rule="evenodd" d="M2 113.84L46 37C52 30.4839 65 -13.2238 77 6.32445C90 24.2437 102 76.3724 115 82.8885C127 89.4045 140 50.308 152 56.8241C165 63.3402 177 113.84 190 113.84C202 113.84 214 63.3402 227 43.7919C239 24.2437 252 37.2759 264 82.8885C277 126.872 289 203.436 302 203.436C314 203.436 327 126.872 339 82.8885C351 37.2759 364 24.2437 376 56.8241C389 89.4045 401 165.969 414 190.404C426 216.468 439 190.404 451 159.452C464 126.872 476 89.4045 489 89.4045C501 89.4045 513 126.872 526 113.84C538 100.808 551 37.2759 563 24.2437C576 12.8405 588 50.308 601 94.2916C613 139.904 626 190.404 638 165.969C651 139.904 663 37.2759 675 24.2437C688 12.8405 700 89.4046 713 146.42C725 203.436 738 242.533 750 247.42C763 253.936 775 229.5 788 216.468C800 203.436 813 203.436 819 203.436H825V280H819C813 280 800 280 788 280C775 280 763 280 750 280C738 280 725 280 713 280C700 280 688 280 675 280C663 280 651 280 638 280C626 280 613 280 601 280C588 280 576 280 563 280C551 280 538 280 526 280C513 280 501 280 489 280C476 280 464 280 451 280C439 280 426 280 414 280C401 280 389 280 376 280C364 280 351 280 339 280C327 280 314 280 302 280C289 280 277 280 264 280C252 280 239 280 227 280C214 280 202 280 190 280C177 280 165 280 152 280C140 280 127 280 115 280C102 280 90 280 77 280C65 280 52 280 46 280H40L2 113.84Z" stroke="url(#paint0_linear_1_1159)" stroke-width="2"/>
<path fill-rule="evenodd" clip-rule="evenodd" d="M825 379.19L821 367.19C816 356.19 808 332.19 799 340.19C790 348.19 781 387.19 773 371.19C764 356.19 755 285.19 746 257.19C738 230.19 729 245.19 720 273.19C712 301.19 703 340.19 694 356.19C685 371.19 677 363.19 668 340.19C659 316.19 651 277.19 642 289.19C633 301.19 624 363.19 616 371.19C607 379.19 598 332.19 589 301.19C581 269.19 572 253.19 563 277.19C555 301.19 546 363.19 537 363.19C528 363.19 520 301.19 511 277.19C502 253.19 494 269.19 485 269.19C476 269.19 467 253.19 459 257.19C450 261.19 441 285.19 432 308.19C424 332.19 415 356.19 406 371.19C398 387.19 389 395.19 380 395.19C371 395.19 363 387.19 354 383.19C345 379.19 337 379.19 328 371.19C319 363.19 310 348.19 302 328.19C293 308.19 284 285.19 276 281.19C267 277.19 258 293.19 249 293.19C241 293.19 232 277.19 223 265.19C214 253.19 206 245.19 197 257.19C188 269.19 180 301.19 171 308.19C162 316.19 153 301.19 145 293.19C136 285.19 127 285.19 118 304.19C110 324.19 101 363.19 92 360.19C84 356.19 75 308.19 66 312.19C57 316.19 49 371.19 44 399.19L40 426.19V450.19H44C49 450.19 57 450.19 66 450.19C75 450.19 84 450.19 92 450.19C101 450.19 110 450.19 118 450.19C127 450.19 136 450.19 145 450.19C153 450.19 162 450.19 171 450.19C180 450.19 188 450.19 197 450.19C206 450.19 214 450.19 223 450.19C232 450.19 241 450.19 249 450.19C258 450.19 267 450.19 275 450.19C284 450.19 293 450.19 302 450.19C310 450.19 319 450.19 328 450.19C337 450.19 345 450.19 354 450.19C363 450.19 371 450.19 380 450.19C389 450.19 398 450.19 406 450.19C415 450.19 424 450.19 432 450.19C441 450.19 450 450.19 459 450.19C467 450.19 476 450.19 485 450.19C494 450.19 502 450.19 511 450.19C520 450.19 528 450.19 537 450.19C546 450.19 555 450.19 563 450.19C572 450.19 581 450.19 590 450.19C598 450.19 607 450.19 616 450.19C624 450.19 633 450.19 642 450.19C651 450.19 659 450.19 668 450.19C677 450.19 685 450.19 694 450.19C703 450.19 712 450.19 720 450.19C729 450.19 738 450.19 746 450.19C755 450.19 764 450.19 773 450.19C781 450.19 790 450.19 799 450.19C808 450.19 816 450.19 821 450.19H825V379.19Z" stroke="url(#paint1_linear_1_1159)" stroke-width="2"/>
<defs>
<linearGradient id="paint0_linear_1_1159" x1="444.5" y1="18.8063" x2="428.11" y2="121.789" gradientUnits="userSpaceOnUse">
<stop stop-color="#00F0FF"/>
<stop offset="1" stop-color="#00F0FF" stop-opacity="0"/>
</linearGradient>
<linearGradient id="paint1_linear_1_1159" x1="420.5" y1="259.638" x2="436.668" y2="387.399" gradientUnits="userSpaceOnUse">
<stop stop-color="#00F0FF"/>
<stop offset="1" stop-color="#00F0FF" stop-opacity="0"/>
</linearGradient>
</defs>
</svg>
