<svg width="76" height="23" viewBox="0 0 76 23" fill="none" xmlns="http://www.w3.org/2000/svg">
<path fill-rule="evenodd" clip-rule="evenodd" d="M10.8368 17.8648C11.6089 17.5206 12.3992 17.9011 12.7444 18.6349C13.2076 19.6405 12.5627 21.3345 11.5635 22.8384H14.1432C14.8608 21.253 15.1788 20.2565 15.1788 19.2237C15.1788 16.814 13.1168 15.4551 11.4091 15.4551C8.6023 15.4551 6.85827 18.354 7.97554 20.8182L10.0557 19.7945C9.81949 19.3053 9.89216 18.2816 10.8368 17.8648Z" fill="#00F0FF"/>
<path fill-rule="evenodd" clip-rule="evenodd" d="M19.2027 3.36928C22.4092 3.36928 26.197 6.3679 26.1516 10.354L28.3589 15.4544H26.306C26.306 17.085 26.306 18.7066 26.306 20.3373H22.3637L21.3464 22.8286H16.1597C17.7857 19.7394 17.2225 17.4112 15.969 15.7261C14.9425 14.3582 14.4611 12.9268 14.4611 11.74C14.4611 8.93167 16.7774 6.92958 18.9029 6.92052C20.7287 6.91146 22.1367 8.22505 22.1367 9.78325C22.1367 10.9972 21.5099 12.3198 20.2836 12.7185C19.7204 12.8996 19.2481 12.6369 19.0301 12.2564C18.694 11.6585 19.0029 11.0787 19.4479 10.7979C19.7204 10.6258 19.9657 10.3268 19.9475 9.89196C19.9294 9.23969 19.3117 8.75049 18.6486 8.9045C17.5949 9.1491 16.5957 10.2996 16.5957 11.7129C16.5957 13.4613 18.3398 14.9108 19.9657 14.9108C22.2638 14.9108 24.3803 12.4739 24.1804 9.90102C23.9897 7.4369 21.9277 5.35326 19.2118 5.35326C17.3406 5.35326 16.3959 5.6794 14.1068 7.53655C11.9631 9.33934 9.26535 9.96443 7.20339 7.98045C5.35036 6.20483 5.83178 2.73513 8.13899 1.61178C10.1737 0.624323 12.0086 1.1407 13.3075 2.64454L11.7088 3.78601C11.191 3.11562 9.94661 2.73513 8.93834 3.41458C7.88465 4.1212 7.78474 5.4348 8.33883 6.26825C9.31076 7.73585 11.073 7.37348 12.3537 6.42226C14.9516 4.47451 15.9962 3.36928 19.2027 3.36928Z" fill="#00F0FF"/>
<path fill-rule="evenodd" clip-rule="evenodd" d="M23.8169 3.48782L24.9523 1.87527C23.6443 0.960281 22.1092 0.335191 20.4197 0.0996498L20.1472 2.05645C21.5188 2.23764 22.7632 2.74496 23.8169 3.48782ZM18.5848 1.97492L18.4849 0C16.8862 0.0815335 15.2875 0.525436 13.8069 1.37701L14.797 3.08921C15.996 2.40071 17.2949 2.03834 18.5848 1.97492Z" fill="#00F0FF"/>
<path fill-rule="evenodd" clip-rule="evenodd" d="M10.0827 5.88807C10.4915 5.88807 10.8276 5.55287 10.8276 5.14521C10.8276 4.73754 10.4915 4.40234 10.0827 4.40234C9.67398 4.40234 9.33789 4.73754 9.33789 5.14521C9.33789 5.55287 9.6649 5.88807 10.0827 5.88807Z" fill="#00F0FF"/>
<path fill-rule="evenodd" clip-rule="evenodd" d="M3.01571 7.69098C3.75148 6.95717 4.93233 6.95717 5.66809 7.69098C6.40385 8.42478 6.40385 9.60248 5.66809 10.3363C4.93233 11.0701 3.75148 11.0701 3.01571 10.3363C2.28903 9.60248 2.28903 8.41572 3.01571 7.69098ZM3.47897 9.01363L4.3419 9.87426L5.20483 9.01363L4.3419 8.153L3.47897 9.01363Z" fill="#00F0FF"/>
<path fill-rule="evenodd" clip-rule="evenodd" d="M3.4244 3.37891C4.251 3.37891 4.92318 4.04929 4.9141 4.88275C4.9141 5.70714 4.24192 6.37753 3.41532 6.36847C2.58872 6.36847 1.91654 5.69808 1.92563 4.87369C1.92563 4.04023 2.59781 3.37891 3.4244 3.37891ZM2.93389 4.38449V5.35383H3.90583V4.38449H2.93389Z" fill="#00F0FF"/>
<path d="M4.96398 1.18105L4.3125 1.90039L5.03377 2.55014L5.68526 1.8308L4.96398 1.18105Z" fill="#00F0FF"/>
<path fill-rule="evenodd" clip-rule="evenodd" d="M2.71596 11.2698C1.80761 12.3569 0.899266 13.4441 0 14.5312L1.10819 15.4552L2.90672 13.3082L5.05951 15.1019L6.85804 12.9549L9.01083 14.7486L10.8094 12.6015L12.9621 14.3862L13.8887 13.281C12.7986 12.3751 11.7086 11.4691 10.6186 10.5723C10.0191 11.2879 9.41958 12.0036 8.82007 12.7193C8.10248 12.1214 7.38488 11.5235 6.66728 10.9256C6.06777 11.6413 5.46826 12.3569 4.86875 13.0726C4.15115 12.4657 3.43356 11.8677 2.71596 11.2698Z" fill="#00F0FF"/>
<path fill-rule="evenodd" clip-rule="evenodd" d="M2.82495 15.9629L6.61277 15.9719V15.981L3.43355 17.811L4.06031 18.889L4.65982 19.9309L5.74076 19.3058L5.13216 18.2639L6.61277 17.4214V20.4925H2.82495V15.9629Z" fill="#00F0FF"/>
<path fill-rule="evenodd" clip-rule="evenodd" d="M36.2159 7.82632H37.6511V13.3797H36.2159V12.7999C35.8707 13.1441 35.1986 13.5065 34.4628 13.5065C32.9004 13.5065 31.7014 12.1385 31.7014 10.5985C31.7014 9.05838 32.8641 7.69043 34.4628 7.69043C35.244 7.69043 35.8707 8.06186 36.2159 8.43329V7.82632ZM73.7398 7.82632H75.175V13.3797H73.7398V12.7999C73.3947 13.1441 72.7225 13.5065 71.9867 13.5065C70.4244 13.5065 69.2253 12.1385 69.2253 10.5985C69.2253 9.05838 70.388 7.69043 71.9867 7.69043C72.7679 7.69043 73.3947 8.06186 73.7398 8.43329V7.82632ZM72.1684 12.1657C72.9859 12.1657 73.7308 11.5134 73.7308 10.6075C73.7308 9.80124 73.0858 9.04932 72.1684 9.04932C71.3418 9.04932 70.606 9.70159 70.606 10.6075C70.606 11.4228 71.251 12.1657 72.1684 12.1657ZM34.6445 12.1657C35.462 12.1657 36.2068 11.5134 36.2068 10.6075C36.2068 9.80124 35.5619 9.04932 34.6445 9.04932C33.8179 9.04932 33.0821 9.70159 33.0821 10.6075C33.0821 11.4228 33.727 12.1657 34.6445 12.1657ZM66.2914 13.4884C64.6563 13.4884 63.3847 12.1567 63.3847 10.5985C63.3847 9.02214 64.6382 7.69043 66.2914 7.69043C67.3178 7.69043 68.2716 8.23398 68.7893 9.11273L67.5812 9.81936C67.3269 9.39357 66.8455 9.0765 66.3095 9.0765C65.4193 9.0765 64.7926 9.79218 64.7926 10.5894C64.7926 11.45 65.4375 12.1023 66.3095 12.1023C66.8455 12.1023 67.336 11.7762 67.5812 11.3323L68.7893 12.057C68.2897 12.9267 67.336 13.4884 66.2914 13.4884Z" fill="#00F0FF"/>
<path fill-rule="evenodd" clip-rule="evenodd" d="M34.6445 16.6691C34.3629 16.6419 34.1631 16.6962 34.0268 16.814C33.8906 16.9318 33.827 17.122 33.827 17.4029V17.5206H34.6445V17.883H33.827V20.3562H33.4546V17.8739H32.9731V17.5116H33.4546V17.3938C33.4546 17.0224 33.5545 16.7415 33.7634 16.5513C33.9723 16.361 34.263 16.2795 34.6445 16.3067V16.6691ZM35.4166 17.9827C35.5892 17.6384 35.8889 17.4663 36.3159 17.4663V17.8286C36.0615 17.8286 35.8435 17.9011 35.6709 18.0551C35.4984 18.2091 35.4166 18.4447 35.4166 18.7708V20.3471H35.0442V17.5116H35.4166V17.9827ZM37.9781 17.4482C38.396 17.4482 38.7412 17.5931 39.0046 17.8921C39.268 18.191 39.3952 18.5443 39.3952 18.9429C39.3952 18.9882 39.3952 19.0426 39.3861 19.1151H36.8881C36.9245 19.405 37.0516 19.6314 37.2515 19.8036C37.4604 19.9757 37.7147 20.0572 38.0145 20.0572C38.2325 20.0572 38.4142 20.0119 38.5777 19.9213C38.7321 19.8307 38.8502 19.713 38.9319 19.568L39.2589 19.7583C39.1318 19.9576 38.9592 20.1206 38.7502 20.2384C38.5322 20.3562 38.287 20.4105 38.0054 20.4105C37.5603 20.4105 37.197 20.2746 36.9154 19.9938C36.6338 19.713 36.4975 19.3597 36.4975 18.9248C36.4975 18.499 36.6338 18.1457 36.9154 17.8649C37.1879 17.584 37.5421 17.4482 37.9781 17.4482ZM37.9781 17.8105C37.6784 17.8105 37.4331 17.9011 37.2333 18.0732C37.0335 18.2454 36.9154 18.4809 36.879 18.7617H39.0046C38.9682 18.4628 38.8502 18.2272 38.6594 18.0642C38.4596 17.8921 38.2325 17.8105 37.9781 17.8105ZM41.3027 17.4482C41.7206 17.4482 42.0657 17.5931 42.3291 17.8921C42.5926 18.191 42.7197 18.5443 42.7197 18.9429C42.7197 18.9882 42.7197 19.0426 42.7107 19.1151H40.2127C40.249 19.405 40.3762 19.6314 40.576 19.8036C40.785 19.9757 41.0393 20.0572 41.339 20.0572C41.557 20.0572 41.7387 20.0119 41.9022 19.9213C42.0566 19.8307 42.1747 19.713 42.2565 19.568L42.5835 19.7583C42.4563 19.9576 42.2837 20.1206 42.0748 20.2384C41.8568 20.3562 41.6115 20.4105 41.33 20.4105C40.8849 20.4105 40.5215 20.2746 40.2399 19.9938C39.9584 19.713 39.8221 19.3597 39.8221 18.9248C39.8221 18.499 39.9584 18.1457 40.2399 17.8649C40.5124 17.584 40.8667 17.4482 41.3027 17.4482ZM41.3027 17.8105C41.003 17.8105 40.7577 17.9011 40.5579 18.0732C40.358 18.2454 40.2399 18.4809 40.2036 18.7617H42.3291C42.2928 18.4628 42.1747 18.2272 41.984 18.0642C41.7841 17.8921 41.557 17.8105 41.3027 17.8105ZM43.3102 20.3562V16.207H43.6826V20.3562H43.3102ZM46.9345 17.5116H47.3069V20.3471H46.9345V19.7945C46.6711 20.2112 46.2895 20.4196 45.7809 20.4196C45.3721 20.4196 45.0269 20.2746 44.7454 19.9847C44.4547 19.6949 44.3184 19.3415 44.3184 18.9248C44.3184 18.5081 44.4638 18.1548 44.7454 17.8649C45.036 17.575 45.3812 17.43 45.7809 17.43C46.2895 17.43 46.6711 17.6384 46.9345 18.0551V17.5116ZM45.0179 19.7311C45.2359 19.9485 45.4993 20.0572 45.8172 20.0572C46.1351 20.0572 46.3986 19.9485 46.6166 19.7311C46.8346 19.5137 46.9436 19.251 46.9436 18.9339C46.9436 18.6168 46.8346 18.3541 46.6166 18.1367C46.3986 17.9192 46.1351 17.8105 45.8172 17.8105C45.4993 17.8105 45.2359 17.9192 45.0179 18.1367C44.7999 18.3541 44.6908 18.6168 44.6908 18.9339C44.6908 19.251 44.7999 19.5137 45.0179 19.7311ZM49.4415 17.4482C49.7867 17.4482 50.0592 17.5569 50.259 17.7652C50.4589 17.9736 50.5588 18.2544 50.5588 18.6168V20.3562H50.1864V18.6168C50.1864 18.3631 50.1228 18.1638 49.9865 18.0279C49.8503 17.8921 49.6595 17.8196 49.4143 17.8196C49.1418 17.8196 48.9147 17.9102 48.7512 18.0823C48.5786 18.2544 48.4968 18.5171 48.4968 18.8795V20.3652H48.1244V17.5116H48.4968V17.9555C48.6967 17.6203 49.0146 17.4482 49.4415 17.4482ZM52.6117 20.4196C52.1847 20.4196 51.8214 20.2746 51.5398 19.9938C51.2582 19.713 51.1129 19.3506 51.1129 18.9339C51.1129 18.5171 51.2582 18.1638 51.5398 17.8739C51.8214 17.584 52.1847 17.4482 52.6117 17.4482C52.8933 17.4482 53.1476 17.5116 53.3656 17.6475C53.5927 17.7833 53.7562 17.9645 53.8561 18.191L53.5473 18.3631C53.4746 18.191 53.3474 18.0551 53.1839 17.9555C53.0113 17.8558 52.8206 17.8015 52.6117 17.8015C52.2937 17.8015 52.0303 17.9102 51.8123 18.1276C51.5943 18.345 51.4853 18.6077 51.4853 18.9248C51.4853 19.2419 51.5943 19.5046 51.8123 19.722C52.0303 19.9395 52.2937 20.0482 52.6117 20.0482C52.8206 20.0482 53.0113 19.9938 53.1839 19.8942C53.3474 19.7945 53.4837 19.6586 53.5745 19.4865L53.8834 19.6677C53.7653 19.8942 53.5927 20.0753 53.3656 20.2112C53.1385 20.3562 52.8933 20.4196 52.6117 20.4196ZM55.7182 17.4482C56.1361 17.4482 56.4812 17.5931 56.7447 17.8921C57.0081 18.191 57.1352 18.5443 57.1352 18.9429C57.1352 18.9882 57.1352 19.0426 57.1262 19.1151H54.6191C54.6554 19.405 54.7826 19.6314 54.9825 19.8036C55.1914 19.9757 55.4457 20.0572 55.7455 20.0572C55.9635 20.0572 56.1451 20.0119 56.3086 19.9213C56.4631 19.8307 56.5811 19.713 56.6629 19.568L56.9899 19.7583C56.8627 19.9576 56.6901 20.1206 56.4812 20.2384C56.2632 20.3562 56.018 20.4105 55.7364 20.4105C55.2913 20.4105 54.928 20.2746 54.6464 19.9938C54.3648 19.713 54.2285 19.3597 54.2285 18.9248C54.2285 18.499 54.3648 18.1457 54.6464 17.8649C54.928 17.584 55.2822 17.4482 55.7182 17.4482ZM55.7182 17.8105C55.4185 17.8105 55.1732 17.9011 54.9734 18.0732C54.7735 18.2454 54.6554 18.4809 54.6191 18.7617H56.7447C56.7083 18.4628 56.5902 18.2272 56.3995 18.0642C56.1996 17.8921 55.9726 17.8105 55.7182 17.8105ZM57.98 20.3199C57.9164 20.3834 57.8438 20.4105 57.762 20.4105C57.6712 20.4105 57.5985 20.3834 57.544 20.3199C57.4804 20.2565 57.4532 20.1841 57.4532 20.1025C57.4532 20.0119 57.4804 19.9395 57.544 19.8851C57.6076 19.8217 57.6802 19.7945 57.762 19.7945C57.8528 19.7945 57.9255 19.8217 57.98 19.8851C58.0436 19.9485 58.0708 20.021 58.0708 20.1025C58.0708 20.1841 58.0345 20.2565 57.98 20.3199ZM61.0321 16.3792H61.4045V20.3562H61.0321V19.8036C60.7686 20.2203 60.3871 20.4287 59.8785 20.4287C59.4697 20.4287 59.1245 20.2837 58.8429 19.9938C58.5523 19.7039 58.416 19.3506 58.416 18.9339C58.416 18.5171 58.5613 18.1638 58.8429 17.8739C59.1336 17.584 59.4788 17.4391 59.8785 17.4391C60.3871 17.4391 60.7686 17.6475 61.0321 18.0642V16.3792ZM59.1154 19.7311C59.3334 19.9485 59.5969 20.0572 59.9148 20.0572C60.2327 20.0572 60.4961 19.9485 60.7141 19.7311C60.9321 19.5137 61.0411 19.251 61.0411 18.9339C61.0411 18.6168 60.9321 18.3541 60.7141 18.1367C60.4961 17.9192 60.2327 17.8105 59.9148 17.8105C59.5969 17.8105 59.3334 17.9192 59.1154 18.1367C58.8974 18.3541 58.7884 18.6168 58.7884 18.9339C58.7884 19.251 58.8974 19.5137 59.1154 19.7311ZM62.5853 16.8321C62.5308 16.8865 62.4673 16.9137 62.3946 16.9137C62.3219 16.9137 62.2583 16.8865 62.2038 16.8321C62.1493 16.7778 62.1221 16.7144 62.1221 16.6419C62.1221 16.5694 62.1493 16.506 62.2038 16.4516C62.2583 16.3973 62.3219 16.3701 62.3946 16.3701C62.4673 16.3701 62.5308 16.3973 62.5853 16.4516C62.6398 16.506 62.6671 16.5694 62.6671 16.6419C62.6671 16.7144 62.6398 16.7778 62.5853 16.8321ZM62.2038 20.3562V17.5116H62.5763V20.3471H62.2038V20.3562ZM65.8281 17.5116H66.2006V20.2384C66.2006 20.6461 66.0643 20.9722 65.7827 21.2078C65.5011 21.4433 65.1651 21.5611 64.7745 21.5611C64.1023 21.5611 63.6572 21.3255 63.421 20.8726L63.748 20.6823C63.9206 21.0266 64.2567 21.1987 64.7654 21.1987C65.0924 21.1987 65.3467 21.1081 65.5375 20.936C65.7282 20.7638 65.8191 20.5283 65.8191 20.2384V19.7945C65.5556 20.2112 65.1741 20.4196 64.6655 20.4196C64.2567 20.4196 63.9115 20.2746 63.6299 19.9847C63.3393 19.6949 63.203 19.3415 63.203 18.9248C63.203 18.5081 63.3483 18.1548 63.6299 17.8649C63.9206 17.575 64.2658 17.43 64.6655 17.43C65.1741 17.43 65.5556 17.6384 65.8191 18.0551V17.5116H65.8281ZM63.9024 19.7311C64.1204 19.9485 64.3839 20.0572 64.7018 20.0572C65.0197 20.0572 65.2831 19.9485 65.5011 19.7311C65.7191 19.5137 65.8281 19.251 65.8281 18.9339C65.8281 18.6168 65.7191 18.3541 65.5011 18.1367C65.2831 17.9192 65.0197 17.8105 64.7018 17.8105C64.3839 17.8105 64.1204 17.9192 63.9024 18.1367C63.6844 18.3541 63.5754 18.6168 63.5754 18.9339C63.5845 19.251 63.6935 19.5137 63.9024 19.7311ZM67.3814 16.8321C67.3269 16.8865 67.2633 16.9137 67.1907 16.9137C67.118 16.9137 67.0544 16.8865 66.9999 16.8321C66.9454 16.7778 66.9182 16.7144 66.9182 16.6419C66.9182 16.5694 66.9454 16.506 66.9999 16.4516C67.0544 16.3973 67.118 16.3701 67.1907 16.3701C67.2633 16.3701 67.3269 16.3973 67.3814 16.4516C67.4359 16.506 67.4632 16.5694 67.4632 16.6419C67.4632 16.7144 67.4359 16.7778 67.3814 16.8321ZM66.9999 20.3562V17.5116H67.3723V20.3471H66.9999V20.3562ZM69.6796 17.8739H68.862V19.5952C68.862 19.7492 68.8893 19.8579 68.9529 19.9304C69.0165 19.9938 69.1073 20.03 69.2254 20.03C69.3435 20.03 69.4979 20.03 69.6796 20.021V20.3471C69.2799 20.4105 68.9801 20.3834 68.7803 20.2656C68.5804 20.1478 68.4805 19.9213 68.4805 19.5952V17.8739H67.881V17.5116H68.4805V16.8321L68.8529 16.7144V17.5116H69.6705V17.8739H69.6796ZM72.5863 17.5116H72.9587V20.3471H72.5863V19.7945C72.3228 20.2112 71.9413 20.4196 71.4327 20.4196C71.0239 20.4196 70.6787 20.2746 70.3971 19.9847C70.1065 19.6949 69.9702 19.3415 69.9702 18.9248C69.9702 18.5081 70.1156 18.1548 70.3971 17.8649C70.6878 17.575 71.033 17.43 71.4327 17.43C71.9413 17.43 72.3228 17.6384 72.5863 18.0551V17.5116ZM70.6696 19.7311C70.8876 19.9485 71.1511 20.0572 71.469 20.0572C71.7869 20.0572 72.0503 19.9485 72.2683 19.7311C72.4864 19.5137 72.5954 19.251 72.5954 18.9339C72.5954 18.6168 72.4864 18.3541 72.2683 18.1367C72.0503 17.9192 71.7869 17.8105 71.469 17.8105C71.1511 17.8105 70.8876 17.9192 70.6696 18.1367C70.4516 18.3541 70.3426 18.6168 70.3426 18.9339C70.3426 19.251 70.4516 19.5137 70.6696 19.7311ZM73.758 20.3562V16.207H74.1305V20.3562H73.758Z" fill="#00F0FF"/>
<path fill-rule="evenodd" clip-rule="evenodd" d="M39.1772 5.64355C39.1772 8.22545 39.1772 10.7983 39.1772 13.3802H40.6124V10.3816H43.6372V8.95019H40.6124V7.07492H43.7281V5.64355H39.1772ZM62.6762 13.3802V11.9488H59.3517V10.2275H62.4037V8.79618H59.3517V7.07492H62.6762V5.64355H57.9165C57.9165 8.22545 57.9165 10.7983 57.9165 13.3802H62.6762ZM56.6721 13.3802V11.9488H53.3475V10.2275H56.3995V8.79618H53.3475V7.07492H56.6721V5.64355H51.9123C51.9123 8.22545 51.9123 10.7983 51.9123 13.3802H56.6721ZM50.9131 13.3802L49.0328 10.2728C49.9957 9.96483 50.686 9.06796 50.686 8.01709C50.686 6.71255 49.6233 5.64355 48.3062 5.64355H44.9634C44.9634 8.22545 44.9634 10.7983 44.9634 13.3802H46.3986V10.3816H47.4796L49.2963 13.3802C49.8322 13.3802 50.3681 13.3802 50.9131 13.3802ZM48.3062 8.95019H46.3986V7.07492H48.3062C48.8239 7.07492 49.2508 7.49165 49.2508 8.01709C49.2418 8.5244 48.8239 8.95019 48.3062 8.95019Z" fill="#00F0FF"/>
</svg>
