<svg width="124" height="39" viewBox="0 0 124 39" fill="none" xmlns="http://www.w3.org/2000/svg">
<path fill-rule="evenodd" clip-rule="evenodd" d="M17.8741 30.4401C19.1477 29.8707 20.4512 30.5 21.0206 31.7137C21.7847 33.3768 20.7209 36.1786 19.0728 38.6658H23.328C24.5116 36.0438 25.036 34.3956 25.036 32.6876C25.036 28.7021 21.6349 26.4546 18.818 26.4546C14.1883 26.4546 11.3115 31.2492 13.1544 35.3246L16.5856 33.6315C16.196 32.8224 16.3159 31.1293 17.8741 30.4401Z" fill="#FFF3E9"/>
<path fill-rule="evenodd" clip-rule="evenodd" d="M31.6743 6.4675C36.9634 6.4675 43.2113 11.4269 43.1364 18.0195L46.7773 26.4549H43.3911C43.3911 29.1519 43.3911 31.8339 43.3911 34.5308H36.8885L35.2104 38.6512H26.655C29.337 33.5419 28.408 29.6913 26.3404 26.9044C24.6473 24.642 23.8532 22.2746 23.8532 20.3119C23.8532 15.6671 27.6739 12.3558 31.1799 12.3409C34.1915 12.3259 36.5139 14.4984 36.5139 17.0755C36.5139 19.0833 35.4801 21.2708 33.4573 21.93C32.5284 22.2297 31.7493 21.7952 31.3897 21.1659C30.8353 20.177 31.3447 19.2181 32.0789 18.7536C32.5284 18.4689 32.9329 17.9745 32.903 17.2553C32.873 16.1765 31.8541 15.3674 30.7604 15.6222C29.0223 16.0267 27.3742 17.9296 27.3742 20.2669C27.3742 23.1586 30.251 25.5559 32.9329 25.5559C36.7236 25.5559 40.2147 21.5255 39.8851 17.2703C39.5704 13.1949 36.1693 9.74879 31.6893 9.74879C28.6028 9.74879 27.0446 10.2882 23.2688 13.3597C19.7328 16.3413 15.2829 17.3752 11.8817 14.0939C8.82515 11.1572 9.61926 5.41868 13.425 3.56078C16.7812 1.92762 19.8078 2.78166 21.9503 5.26885L19.3133 7.15672C18.4593 6.04797 16.4066 5.41868 14.7435 6.54241C13.0054 7.71109 12.8406 9.88364 13.7546 11.2621C15.3578 13.6893 18.2645 13.09 20.3771 11.5168C24.6623 8.29543 26.3853 6.4675 31.6743 6.4675Z" fill="#B2DFFF"/>
<path fill-rule="evenodd" clip-rule="evenodd" d="M39.2855 6.66204L41.1584 3.99505C39.0008 2.48176 36.4687 1.44792 33.6819 1.05836L33.2324 4.29471C35.4948 4.59437 37.5475 5.43343 39.2855 6.66204ZM30.6553 4.15986L30.4905 0.893555C27.8534 1.0284 25.2164 1.76257 22.7742 3.17098L24.4073 6.00278C26.3851 4.86407 28.5277 4.26475 30.6553 4.15986Z" fill="white"/>
<path fill-rule="evenodd" clip-rule="evenodd" d="M16.6322 10.6325C17.3064 10.6325 17.8608 10.0781 17.8608 9.40391C17.8608 8.72967 17.3064 8.17529 16.6322 8.17529C15.9579 8.17529 15.4036 8.72967 15.4036 9.40391C15.4036 10.0781 15.943 10.6325 16.6322 10.6325Z" fill="#3099E5"/>
<path fill-rule="evenodd" clip-rule="evenodd" d="M4.97394 13.6143C6.18757 12.4007 8.13536 12.4007 9.34899 13.6143C10.5626 14.828 10.5626 16.7758 9.34899 17.9894C8.13536 19.203 6.18757 19.203 4.97394 17.9894C3.77529 16.7758 3.77529 14.813 4.97394 13.6143ZM5.73807 15.8019L7.16146 17.2252L8.58486 15.8019L7.16146 14.3785L5.73807 15.8019Z" fill="#3099E5"/>
<path fill-rule="evenodd" clip-rule="evenodd" d="M5.6479 6.48242C7.01136 6.48242 8.1201 7.59117 8.10512 8.96961C8.10512 10.3331 6.99637 11.4418 5.63291 11.4268C4.26945 11.4268 3.1607 10.3181 3.17569 8.95463C3.17569 7.57619 4.28444 6.48242 5.6479 6.48242ZM4.83881 8.14554V9.74873H6.442V8.14554H4.83881Z" fill="#3099E5"/>
<path d="M8.18789 2.84714L7.11328 4.03687L8.30301 5.11148L9.37762 3.92176L8.18789 2.84714Z" fill="#3099E5"/>
<path fill-rule="evenodd" clip-rule="evenodd" d="M4.47994 19.5321C2.98163 21.3301 1.48332 23.1281 0 24.926L1.82794 26.4543L4.79459 22.9033L8.34558 25.87L11.3122 22.319L14.8632 25.2856L17.8299 21.7346L21.3809 24.6863L22.9091 22.8584C21.1112 21.36 19.3132 19.8617 17.5152 18.3784C16.5263 19.5621 15.5375 20.7457 14.5486 21.9294C13.3649 20.9405 12.1812 19.9516 10.9976 18.9628C10.0087 20.1464 9.01981 21.3301 8.03093 22.5137C6.84726 21.5099 5.6636 20.521 4.47994 19.5321Z" fill="white"/>
<path fill-rule="evenodd" clip-rule="evenodd" d="M4.65918 27.2935L10.9071 27.3084V27.3234L5.66305 30.35L6.69688 32.133L7.68576 33.856L9.46875 32.8222L8.46489 31.0992L10.9071 29.7057V34.785H4.65918V27.2935Z" fill="white"/>
<path fill-rule="evenodd" clip-rule="evenodd" d="M59.7371 13.839H62.1044V23.0236H59.7371V22.0647C59.1678 22.6341 58.059 23.2334 56.8454 23.2334C54.2683 23.2334 52.2905 20.971 52.2905 18.4238C52.2905 15.8767 54.2084 13.6143 56.8454 13.6143C58.1339 13.6143 59.1678 14.2286 59.7371 14.8429V13.839ZM121.632 13.839H124V23.0236H121.632V22.0647C121.063 22.6341 119.954 23.2334 118.74 23.2334C116.163 23.2334 114.186 20.971 114.186 18.4238C114.186 15.8767 116.103 13.6143 118.74 13.6143C120.029 13.6143 121.063 14.2286 121.632 14.8429V13.839ZM119.04 21.0159C120.389 21.0159 121.617 19.9371 121.617 18.4388C121.617 17.1053 120.553 15.8617 119.04 15.8617C117.677 15.8617 116.463 16.9405 116.463 18.4388C116.463 19.7873 117.527 21.0159 119.04 21.0159ZM57.145 21.0159C58.4935 21.0159 59.7221 19.9371 59.7221 18.4388C59.7221 17.1053 58.6583 15.8617 57.145 15.8617C55.7816 15.8617 54.568 16.9405 54.568 18.4388C54.568 19.7873 55.6317 21.0159 57.145 21.0159ZM109.346 23.2034C106.649 23.2034 104.552 21.0009 104.552 18.4238C104.552 15.8168 106.619 13.6143 109.346 13.6143C111.039 13.6143 112.612 14.5132 113.466 15.9666L111.474 17.1353C111.054 16.4311 110.26 15.9067 109.376 15.9067C107.908 15.9067 106.874 17.0903 106.874 18.4088C106.874 19.8322 107.938 20.911 109.376 20.911C110.26 20.911 111.069 20.3716 111.474 19.6375L113.466 20.8361C112.642 22.2745 111.069 23.2034 109.346 23.2034Z" fill="#EFEFF3"/>
<path fill-rule="evenodd" clip-rule="evenodd" d="M57.1458 28.4624C56.6813 28.4174 56.3517 28.5073 56.1269 28.7021C55.9022 28.8969 55.7973 29.2115 55.7973 29.676V29.8708H57.1458V30.4701H55.7973V34.5605H55.183V30.4551H54.3889V29.8558H55.183V29.661C55.183 29.0467 55.3478 28.5823 55.6924 28.2676C56.0371 27.953 56.5165 27.8181 57.1458 27.8631V28.4624ZM58.4194 30.6349C58.704 30.0656 59.1985 29.7809 59.9027 29.7809V30.3802C59.4832 30.3802 59.1236 30.5001 58.8389 30.7548C58.5542 31.0095 58.4194 31.3991 58.4194 31.9385V34.5455H57.8051V29.8558H58.4194V30.6349ZM62.6446 29.7509C63.3338 29.7509 63.9032 29.9907 64.3377 30.4851C64.7722 30.9795 64.982 31.5639 64.982 32.2231C64.982 32.298 64.982 32.388 64.967 32.5078H60.8466C60.9066 32.9873 61.1163 33.3618 61.4459 33.6465C61.7906 33.9312 62.2101 34.0661 62.7045 34.0661C63.0641 34.0661 63.3638 33.9911 63.6335 33.8413C63.8882 33.6915 64.083 33.4967 64.2178 33.257L64.7572 33.5716C64.5474 33.9012 64.2628 34.1709 63.9182 34.3657C63.5586 34.5605 63.154 34.6504 62.6895 34.6504C61.9554 34.6504 61.356 34.4257 60.8916 33.9612C60.4271 33.4967 60.2024 32.9124 60.2024 32.1932C60.2024 31.489 60.4271 30.9046 60.8916 30.4402C61.3411 29.9757 61.9254 29.7509 62.6446 29.7509ZM62.6446 30.3502C62.1501 30.3502 61.7456 30.5001 61.416 30.7848C61.0863 31.0694 60.8916 31.459 60.8316 31.9235H64.3377C64.2777 31.429 64.083 31.0395 63.7683 30.7698C63.4387 30.4851 63.0641 30.3502 62.6446 30.3502ZM68.1284 29.7509C68.8176 29.7509 69.387 29.9907 69.8215 30.4851C70.256 30.9795 70.4658 31.5639 70.4658 32.2231C70.4658 32.298 70.4658 32.388 70.4508 32.5078H66.3304C66.3904 32.9873 66.6001 33.3618 66.9298 33.6465C67.2744 33.9312 67.6939 34.0661 68.1883 34.0661C68.5479 34.0661 68.8476 33.9911 69.1173 33.8413C69.372 33.6915 69.5668 33.4967 69.7016 33.257L70.241 33.5716C70.0313 33.9012 69.7466 34.1709 69.402 34.3657C69.0424 34.5605 68.6378 34.6504 68.1734 34.6504C67.4392 34.6504 66.8399 34.4257 66.3754 33.9612C65.9109 33.4967 65.6862 32.9124 65.6862 32.1932C65.6862 31.489 65.9109 30.9046 66.3754 30.4402C66.8249 29.9757 67.4092 29.7509 68.1284 29.7509ZM68.1284 30.3502C67.634 30.3502 67.2294 30.5001 66.8998 30.7848C66.5702 31.0694 66.3754 31.459 66.3154 31.9235H69.8215C69.7616 31.429 69.5668 31.0395 69.2521 30.7698C68.9225 30.4851 68.5479 30.3502 68.1284 30.3502ZM71.4397 34.5605V27.6982H72.054V34.5605H71.4397ZM77.4179 29.8558H78.0322V34.5455H77.4179V33.6315C76.9834 34.3208 76.3541 34.6654 75.5151 34.6654C74.8408 34.6654 74.2715 34.4256 73.807 33.9462C73.3275 33.4667 73.1028 32.8824 73.1028 32.1932C73.1028 31.5039 73.3425 30.9196 73.807 30.4402C74.2865 29.9607 74.8558 29.721 75.5151 29.721C76.3541 29.721 76.9834 30.0656 77.4179 30.7548V29.8558ZM74.2565 33.5267C74.6161 33.8863 75.0506 34.0661 75.575 34.0661C76.0994 34.0661 76.5339 33.8863 76.8935 33.5267C77.2531 33.1671 77.4329 32.7326 77.4329 32.2082C77.4329 31.6837 77.2531 31.2492 76.8935 30.8896C76.5339 30.5301 76.0994 30.3502 75.575 30.3502C75.0506 30.3502 74.6161 30.5301 74.2565 30.8896C73.8969 31.2492 73.7171 31.6837 73.7171 32.2082C73.7171 32.7326 73.8969 33.1671 74.2565 33.5267ZM81.5532 29.7509C82.1226 29.7509 82.5721 29.9307 82.9017 30.2753C83.2313 30.6199 83.3962 31.0844 83.3962 31.6837V34.5605H82.7818V31.6837C82.7818 31.2642 82.677 30.9346 82.4522 30.7098C82.2275 30.4851 81.9128 30.3652 81.5083 30.3652C81.0588 30.3652 80.6842 30.5151 80.4145 30.7997C80.1299 31.0844 79.995 31.5189 79.995 32.1183V34.5755H79.3807V29.8558H79.995V30.59C80.3246 30.0356 80.849 29.7509 81.5532 29.7509ZM86.7823 34.6654C86.0781 34.6654 85.4788 34.4257 85.0143 33.9612C84.5499 33.4967 84.3101 32.8974 84.3101 32.2082C84.3101 31.5189 84.5499 30.9346 85.0143 30.4551C85.4788 29.9757 86.0781 29.7509 86.7823 29.7509C87.2468 29.7509 87.6663 29.8558 88.0259 30.0806C88.4005 30.3053 88.6702 30.605 88.835 30.9795L88.3256 31.2642C88.2057 30.9795 87.996 30.7548 87.7263 30.59C87.4416 30.4252 87.127 30.3353 86.7823 30.3353C86.2579 30.3353 85.8234 30.5151 85.4638 30.8747C85.1042 31.2343 84.9244 31.6688 84.9244 32.1932C84.9244 32.7176 85.1042 33.1521 85.4638 33.5117C85.8234 33.8713 86.2579 34.0511 86.7823 34.0511C87.127 34.0511 87.4416 33.9612 87.7263 33.7964C87.996 33.6315 88.2207 33.4068 88.3705 33.1221L88.88 33.4218C88.6852 33.7964 88.4005 34.096 88.0259 34.3208C87.6513 34.5605 87.2468 34.6654 86.7823 34.6654ZM91.9065 29.7509C92.5958 29.7509 93.1651 29.9907 93.5996 30.4851C94.0342 30.9795 94.2439 31.5639 94.2439 32.2231C94.2439 32.298 94.2439 32.388 94.2289 32.5078H90.0936C90.1535 32.9873 90.3633 33.3618 90.6929 33.6465C91.0375 33.9312 91.4571 34.0661 91.9515 34.0661C92.3111 34.0661 92.6108 33.9911 92.8804 33.8413C93.1352 33.6915 93.3299 33.4967 93.4648 33.257L94.0042 33.5716C93.7944 33.9012 93.5097 34.1709 93.1651 34.3657C92.8055 34.5605 92.401 34.6504 91.9365 34.6504C91.2024 34.6504 90.603 34.4257 90.1386 33.9612C89.6741 33.4967 89.4493 32.9124 89.4493 32.1932C89.4493 31.489 89.6741 30.9046 90.1386 30.4402C90.603 29.9757 91.1874 29.7509 91.9065 29.7509ZM91.9065 30.3502C91.4121 30.3502 91.0076 30.5001 90.6779 30.7848C90.3483 31.0694 90.1535 31.459 90.0936 31.9235H93.5996C93.5397 31.429 93.3449 31.0395 93.0303 30.7698C92.7006 30.4851 92.3261 30.3502 91.9065 30.3502ZM95.6373 34.5006C95.5325 34.6054 95.4126 34.6504 95.2777 34.6504C95.1279 34.6504 95.008 34.6054 94.9181 34.5006C94.8133 34.3957 94.7683 34.2758 94.7683 34.141C94.7683 33.9911 94.8133 33.8713 94.9181 33.7814C95.023 33.6765 95.1429 33.6315 95.2777 33.6315C95.4276 33.6315 95.5474 33.6765 95.6373 33.7814C95.7422 33.8863 95.7872 34.0061 95.7872 34.141C95.7872 34.2758 95.7272 34.3957 95.6373 34.5006ZM100.672 27.9829H101.286V34.5605H100.672V33.6465C100.237 34.3357 99.6079 34.6804 98.7688 34.6804C98.0946 34.6804 97.5252 34.4406 97.0607 33.9612C96.5813 33.4817 96.3565 32.8974 96.3565 32.2082C96.3565 31.5189 96.5963 30.9346 97.0607 30.4551C97.5402 29.9757 98.1096 29.7359 98.7688 29.7359C99.6079 29.7359 100.237 30.0806 100.672 30.7698V27.9829ZM97.5102 33.5267C97.8698 33.8863 98.3043 34.0661 98.8287 34.0661C99.3531 34.0661 99.7876 33.8863 100.147 33.5267C100.507 33.1671 100.687 32.7326 100.687 32.2082C100.687 31.6837 100.507 31.2492 100.147 30.8896C99.7876 30.5301 99.3531 30.3502 98.8287 30.3502C98.3043 30.3502 97.8698 30.5301 97.5102 30.8896C97.1506 31.2492 96.9708 31.6837 96.9708 32.2082C96.9708 32.7326 97.1506 33.1671 97.5102 33.5267ZM103.234 28.7321C103.144 28.822 103.039 28.8669 102.919 28.8669C102.799 28.8669 102.694 28.822 102.604 28.7321C102.515 28.6422 102.47 28.5373 102.47 28.4174C102.47 28.2976 102.515 28.1927 102.604 28.1028C102.694 28.0129 102.799 27.9679 102.919 27.9679C103.039 27.9679 103.144 28.0129 103.234 28.1028C103.324 28.1927 103.369 28.2976 103.369 28.4174C103.369 28.5373 103.324 28.6422 103.234 28.7321ZM102.604 34.5605V29.8558H103.219V34.5455H102.604V34.5605ZM108.583 29.8558H109.197V34.3657C109.197 35.04 108.972 35.5793 108.508 35.9689C108.043 36.3585 107.489 36.5532 106.845 36.5532C105.736 36.5532 105.002 36.1637 104.612 35.4145L105.152 35.0999C105.436 35.6692 105.991 35.9539 106.83 35.9539C107.369 35.9539 107.789 35.8041 108.103 35.5194C108.418 35.2347 108.568 34.8452 108.568 34.3657V33.6315C108.133 34.3208 107.504 34.6654 106.665 34.6654C105.991 34.6654 105.421 34.4256 104.957 33.9462C104.477 33.4667 104.253 32.8824 104.253 32.1932C104.253 31.5039 104.492 30.9196 104.957 30.4402C105.436 29.9607 106.006 29.721 106.665 29.721C107.504 29.721 108.133 30.0656 108.568 30.7548V29.8558H108.583ZM105.406 33.5267C105.766 33.8863 106.2 34.0661 106.725 34.0661C107.249 34.0661 107.684 33.8863 108.043 33.5267C108.403 33.1671 108.583 32.7326 108.583 32.2082C108.583 31.6837 108.403 31.2492 108.043 30.8896C107.684 30.5301 107.249 30.3502 106.725 30.3502C106.2 30.3502 105.766 30.5301 105.406 30.8896C105.047 31.2492 104.867 31.6837 104.867 32.2082C104.882 32.7326 105.062 33.1671 105.406 33.5267ZM111.145 28.7321C111.055 28.822 110.95 28.8669 110.83 28.8669C110.71 28.8669 110.605 28.822 110.516 28.7321C110.426 28.6422 110.381 28.5373 110.381 28.4174C110.381 28.2976 110.426 28.1927 110.516 28.1028C110.605 28.0129 110.71 27.9679 110.83 27.9679C110.95 27.9679 111.055 28.0129 111.145 28.1028C111.235 28.1927 111.28 28.2976 111.28 28.4174C111.28 28.5373 111.235 28.6422 111.145 28.7321ZM110.516 34.5605V29.8558H111.13V34.5455H110.516V34.5605ZM114.936 30.4551H113.587V33.3019C113.587 33.5566 113.632 33.7364 113.737 33.8563C113.842 33.9612 113.992 34.0211 114.186 34.0211C114.381 34.0211 114.636 34.0211 114.936 34.0061V34.5455C114.276 34.6504 113.782 34.6054 113.452 34.4107C113.123 34.2159 112.958 33.8413 112.958 33.3019V30.4551H111.969V29.8558H112.958V28.7321L113.572 28.5373V29.8558H114.921V30.4551H114.936ZM119.73 29.8558H120.344V34.5455H119.73V33.6315C119.296 34.3208 118.666 34.6654 117.827 34.6654C117.153 34.6654 116.584 34.4256 116.119 33.9462C115.64 33.4667 115.415 32.8824 115.415 32.1932C115.415 31.5039 115.655 30.9196 116.119 30.4402C116.599 29.9607 117.168 29.721 117.827 29.721C118.666 29.721 119.296 30.0656 119.73 30.7548V29.8558ZM116.569 33.5267C116.928 33.8863 117.363 34.0661 117.887 34.0661C118.412 34.0661 118.846 33.8863 119.206 33.5267C119.565 33.1671 119.745 32.7326 119.745 32.2082C119.745 31.6837 119.565 31.2492 119.206 30.8896C118.846 30.5301 118.412 30.3502 117.887 30.3502C117.363 30.3502 116.928 30.5301 116.569 30.8896C116.209 31.2492 116.029 31.6837 116.029 32.2082C116.029 32.7326 116.209 33.1671 116.569 33.5267ZM121.663 34.5605V27.6982H122.277V34.5605H121.663Z" fill="#EFEFF3"/>
<path fill-rule="evenodd" clip-rule="evenodd" d="M64.6218 10.228C64.6218 14.4982 64.6218 18.7534 64.6218 23.0236H66.9892V18.0642H71.9785V15.6969H66.9892V12.5954H72.1283V10.228H64.6218ZM103.383 23.0236V20.6563H97.8992V17.8095H102.934V15.4421H97.8992V12.5954H103.383V10.228H95.5319C95.5319 14.4982 95.5319 18.7534 95.5319 23.0236H103.383ZM93.4792 23.0236V20.6563H87.9954V17.8095H93.0297V15.4421H87.9954V12.5954H93.4792V10.228H85.6281C85.6281 14.4982 85.6281 18.7534 85.6281 23.0236H93.4792ZM83.98 23.0236L80.8785 17.8844C82.4667 17.375 83.6054 15.8916 83.6054 14.1536C83.6054 11.996 81.8524 10.228 79.6798 10.228H74.166C74.166 14.4982 74.166 18.7534 74.166 23.0236H76.5334V18.0642H78.3164L81.313 23.0236C82.197 23.0236 83.081 23.0236 83.98 23.0236ZM79.6798 15.6969H76.5334V12.5954H79.6798C80.5339 12.5954 81.2381 13.2846 81.2381 14.1536C81.2231 14.9926 80.5339 15.6969 79.6798 15.6969Z" fill="#EFEFF3"/>
</svg>
