<svg width="42" height="40" viewBox="0 0 42 40" fill="none" xmlns="http://www.w3.org/2000/svg">
<path d="M21.9175 3.14288L25.5209 11.4528C26.2454 13.1236 27.821 14.2683 29.6339 14.4411L38.6507 15.3003C39.5219 15.3833 39.8737 16.4662 39.2177 17.0454L32.428 23.0404C31.0629 24.2457 30.4611 26.098 30.857 27.8755L32.8262 36.7165C33.0164 37.5707 32.0953 38.2399 31.3417 37.795L23.542 33.1902C21.9738 32.2644 20.0262 32.2644 18.458 33.1902L10.6583 37.795C9.90471 38.2399 8.98357 37.5706 9.17382 36.7165L11.143 27.8755C11.5389 26.098 10.9371 24.2457 9.57199 23.0404L2.7823 17.0454C2.1263 16.4662 2.47816 15.3833 3.34932 15.3003L12.3661 14.4411C14.179 14.2683 15.7546 13.1236 16.4791 11.4528L20.0825 3.14288C20.4307 2.34 21.5693 2.34 21.9175 3.14288Z" stroke="#00F0FF" stroke-width="4"/>
</svg>
