<svg width="623" height="360" viewBox="0 0 623 360" fill="none" xmlns="http://www.w3.org/2000/svg">
<path fill-rule="evenodd" clip-rule="evenodd" d="M2 190.541L7.00404 180.497C13.0089 170.452 23.017 150.364 34.0259 126.927C45.0348 101.816 56.0437 73.3568 66.0517 53.268C77.0606 34.8534 88.0695 24.809 99.0784 29.8312C109.086 34.8534 120.095 53.268 131.104 83.4011C142.113 111.86 152.121 150.364 163.13 136.971C174.139 121.905 185.148 53.268 195.156 24.809C206.165 -3.65005 217.174 4.72026 228.183 4.72026C238.191 4.72026 249.2 -3.65005 260.209 4.72026C271.217 14.7646 281.226 44.8977 292.234 73.3568C303.243 101.816 313.251 131.949 324.26 121.905C335.269 111.86 346.278 63.3124 356.286 63.3124C367.295 63.3124 378.304 111.86 389.313 141.993C399.321 170.452 410.33 180.497 421.339 170.452C432.348 160.408 442.356 131.949 453.365 111.86C464.373 93.4455 475.382 83.4011 485.39 63.3124C496.399 44.8977 507.408 14.7646 518.417 14.7646C528.425 14.7646 510.411 154.177 542.437 95.5846C553.445 105.629 567.457 190.541 577.465 49.9199L621 219H582.469H577.465C571.46 219 561.452 219 550.443 219C539.434 219 528.425 219 518.417 219C507.408 219 496.399 219 485.39 219C475.382 219 464.373 219 453.365 219C442.356 219 432.348 219 421.339 219C410.33 219 399.321 219 389.313 219C378.304 219 367.295 219 356.286 219C346.278 219 335.269 219 324.26 219C313.251 219 303.243 219 292.234 219C281.226 219 271.217 219 260.209 219C249.2 219 238.191 219 228.183 219C217.174 219 206.165 219 195.156 219C185.148 219 174.139 219 163.13 219C152.121 219 142.113 219 131.104 219C120.095 219 109.086 219 99.0784 219C88.0695 219 77.0606 219 66.0517 219C56.0437 219 45.0348 219 34.0259 219C23.017 219 13.0089 219 7.00404 219H2V190.541Z" stroke="url(#paint0_linear_533_7)" stroke-width="2"/>
<path d="M616 345.263C611 333.263 601 221.263 592 224.263C582 227.263 572 258.263 562 271.263C552 283.263 542 277.263 533 283.263C523 289.263 513 308.263 503 308.263C493 308.263 483 289.263 474 277.263C464 264.263 454 258.263 444 255.263C434 252.263 424 252.263 415 240.263C405 227.263 395 202.263 385 209.263C375 215.263 366 252.263 356 261.263C346 271.263 336 252.263 326 252.263C316 252.263 307 271.263 297 280.263C287 289.263 277 289.263 267 274.263C257 258.263 248 227.263 238 215.263C228 202.263 218 209.263 208 215.263C199 221.263 189 227.263 179 221.263C169 215.263 159 196.263 149 212.263C140 227.263 130 277.263 120 292.263C110 308.263 100 289.263 90 274.263C81 258.263 71 246.263 61 233.263C51 221.263 41 209.263 31 221.263C22 233.263 12 319.5 7 337.5V359.5L2 345.263H7C12 345.263 22 345.263 31 345.263C41 345.263 51 345.263 61 345.263C71 345.263 81 345.263 90 345.263C100 345.263 110 345.263 120 345.263C130 345.263 140 345.263 149 345.263C159 345.263 169 345.263 179 345.263C189 345.263 199 345.263 208 345.263C218 345.263 228 345.263 238 345.263C248 345.263 257 345.263 267 345.263C277 345.263 287 345.263 297 345.263C307 345.263 316 345.263 326 345.263C336 345.263 346 345.263 356 345.263C366 345.263 375 345.263 385 345.263C395 345.263 405 345.263 415 345.263C424 345.263 434 345.263 444 345.263C454 345.263 464 345.263 474 345.263C483 345.263 493 345.263 503 345.263C513 345.263 523 345.263 533 345.263C542 345.263 552 345.263 562 345.263C572 345.263 582 345.263 592 345.263C601 345.263 611 345.263 616 345.263ZM616 345.263H621" stroke="url(#paint1_linear_533_7)" stroke-width="2"/>
<defs>
<linearGradient id="paint0_linear_533_7" x1="334.816" y1="14.6709" x2="321.576" y2="157.933" gradientUnits="userSpaceOnUse">
<stop stop-color="#00F0FF"/>
<stop offset="1" stop-color="#00F0FF" stop-opacity="0"/>
</linearGradient>
<linearGradient id="paint1_linear_533_7" x1="334.816" y1="215.626" x2="328.127" y2="273.01" gradientUnits="userSpaceOnUse">
<stop stop-color="#00F0FF"/>
<stop offset="1" stop-color="#00F0FF" stop-opacity="0"/>
</linearGradient>
</defs>
</svg>
