<svg width="96" height="74" viewBox="0 0 96 74" fill="none" xmlns="http://www.w3.org/2000/svg">
<g filter="url(#filter0_d_2259_9)">
<path d="M92 28.2733C92 25.6617 89.8099 18.8201 87.1017 18.8201L82.2034 18.8201L82.2034 9.45303C82.2034 4.22987 77.8236 -6.19672e-07 72.4064 -8.56462e-07L13.7973 -3.41835e-06C8.37983 -3.65515e-06 4 4.22986 4 9.45321L4 56.547C4.00036 61.7701 8.3802 66 13.7973 66L72.4064 66C77.8234 66 82.2032 61.7701 82.2032 56.5468L82.2032 47.1797L87.1017 47.1797C89.8103 47.1797 92 40.3383 92 37.7267L92 28.2737L92 28.2733ZM72.4062 33L48 33L48 51.8205L13.7968 33L38.203 33L38.203 14.1795L72.4062 33Z" fill="#45AEF5"/>
</g>
<defs>
<filter id="filter0_d_2259_9" x="0" y="0" width="96" height="74" filterUnits="userSpaceOnUse" color-interpolation-filters="sRGB">
<feFlood flood-opacity="0" result="BackgroundImageFix"/>
<feColorMatrix in="SourceAlpha" type="matrix" values="0 0 0 0 0 0 0 0 0 0 0 0 0 0 0 0 0 0 127 0" result="hardAlpha"/>
<feOffset dy="4"/>
<feGaussianBlur stdDeviation="2"/>
<feComposite in2="hardAlpha" operator="out"/>
<feColorMatrix type="matrix" values="0 0 0 0 0 0 0 0 0 0 0 0 0 0 0 0 0 0 0.25 0"/>
<feBlend mode="normal" in2="BackgroundImageFix" result="effect1_dropShadow_2259_9"/>
<feBlend mode="normal" in="SourceGraphic" in2="effect1_dropShadow_2259_9" result="shape"/>
</filter>
</defs>
</svg>
