<svg width="238" height="58" viewBox="0 0 238 58" fill="none" xmlns="http://www.w3.org/2000/svg">
<path d="M81.0494 49.4932H75.7119L85.8366 30.4878H92.6047L102.647 49.4932H97.2819L94.8332 44.7009H83.5255L81.0494 49.4932ZM85.3689 41.1134H92.9898L89.3582 34.048H89.1381L85.3689 41.1134ZM119.11 30.4878C123.732 30.4878 125.631 32.1858 125.631 35.8555H121.064C121.064 34.6777 120.651 34.0753 118.725 34.0753H111.049C109.756 34.0753 108.848 34.5957 108.848 36.047C108.848 37.7723 109.783 37.9914 111.049 37.9914H119.385C123.595 37.9914 125.631 38.4297 125.631 43.7149C125.631 47.7406 123.87 49.4932 119.358 49.4932H110.141C105.271 49.4932 103.813 47.7679 103.813 44.0985H108.38C108.38 45.0296 109.343 45.9057 110.636 45.9057H118.285C120.293 45.9057 121.064 45.2484 121.064 43.7149C121.064 42.3456 120.761 41.5789 118.147 41.5789H111.379C106.179 41.5789 104.281 40.6752 104.281 35.8555C104.281 32.0216 106.262 30.4878 111.352 30.4878H119.11ZM128.89 30.4878H148.396V34.2671H133.457V37.7723H147.956V41.5516H133.457V49.4932H128.89V30.4878ZM153.754 49.4932H148.416L158.541 30.4878H165.309L175.351 49.4932H169.986L167.537 44.7009H156.23L153.754 49.4932ZM158.073 41.1134H165.694L162.062 34.048H161.842L158.073 41.1134ZM181.442 34.2671V40.0727H190.989C192.943 40.0727 193.603 39.2239 193.603 37.1699C193.603 35.1708 193.025 34.2671 190.989 34.2671H181.442ZM198.5 49.4932H193.933V46.5357C193.933 44.6736 192.943 43.8518 190.301 43.8518H181.442V49.4932H176.875V30.4878H191.374C195.336 30.4878 198.17 31.7751 198.17 37.1699C198.17 40.0727 196.794 41.3052 195.391 42.1267C197.29 42.7565 198.5 43.4958 198.5 45.5497V49.4932ZM206.69 30.4878V49.4932H202.123V30.4878H206.69ZM216.212 49.4932H210.875L221 30.4878H227.768L237.81 49.4932H232.445L229.997 44.7009H218.689L216.212 49.4932ZM220.532 41.1134H228.153L224.521 34.048H224.301L220.532 41.1134Z" fill="white"/>
<path d="M52.6541 45.226L72.4321 9.50207C73.7493 7.12327 70.9518 4.59632 68.7005 6.13126L10.3115 45.9426C7.99247 47.5236 5.15903 44.8113 6.65591 42.443L17.9854 24.5193C18.8167 23.2042 20.6193 22.9145 21.8241 23.9024L48.7391 45.9715C49.9907 46.998 51.8714 46.6399 52.6541 45.226Z" stroke="url(#paint0_linear_1_1126)" stroke-width="7"/>
<path fill-rule="evenodd" clip-rule="evenodd" d="M202.132 23.0767V49.4933H208.606V23.0767C207.802 23.9449 206.649 24.4888 205.369 24.4888C204.089 24.4888 202.936 23.9449 202.132 23.0767Z" fill="url(#paint1_linear_1_1126)"/>
<path d="M205.369 20.8802C207.8 20.8802 209.772 18.9182 209.772 16.4979C209.772 14.0777 207.8 12.1157 205.369 12.1157C202.937 12.1157 200.966 14.0777 200.966 16.4979C200.966 18.9182 202.937 20.8802 205.369 20.8802Z" fill="#00EFFF"/>
<defs>
<linearGradient id="paint0_linear_1_1126" x1="70.8301" y1="5.41327" x2="11.8103" y2="42.7804" gradientUnits="userSpaceOnUse">
<stop stop-color="#000AFF"/>
<stop offset="1" stop-color="#00F0FF"/>
</linearGradient>
<linearGradient id="paint1_linear_1_1126" x1="205.369" y1="49.4933" x2="205.37" y2="24.36" gradientUnits="userSpaceOnUse">
<stop stop-color="#000AFF"/>
<stop offset="1" stop-color="#00F0FF"/>
</linearGradient>
</defs>
</svg>
