<svg width="787" height="363" viewBox="0 0 787 363" fill="none" xmlns="http://www.w3.org/2000/svg">
<path fill-rule="evenodd" clip-rule="evenodd" d="M786 137.458L782 125.458C777 114.458 769 90.4579 760 98.4579C751 106.458 742 145.458 734 129.458C725 114.458 716 43.4579 707 15.4579C699 -11.5421 690 3.45789 681 31.4579C673 59.4579 664 98.4579 655 114.458C646 129.458 638 121.458 629 98.4579C620 74.4579 612 35.4579 603 47.4579C594 59.4579 585 121.458 577 129.458C568 137.458 559 90.4579 550 59.4579C542 27.4579 533 11.4579 524 35.4579C516 59.4579 507 121.458 498 121.458C489 121.458 481 59.4579 472 35.4579C463 11.4579 455 27.4579 446 27.4579C437 27.4579 428 11.4579 420 15.4579C411 19.4579 402 43.4579 393 66.4579C385 90.4579 376 114.458 367 129.458C359 145.458 350 153.458 341 153.458C332 153.458 324 145.458 315 141.458C306 137.458 298 137.458 289 129.458C280 121.458 271 106.458 263 86.4579C254 66.4579 245 43.4579 237 39.4579C228 35.4579 219 51.4579 210 51.4579C202 51.4579 193 35.4579 184 23.4579C175 11.4579 167 3.45789 158 15.4579C149 27.4579 141 59.4579 132 66.4579C123 74.4579 114 59.4579 106 51.4579C97 43.4579 88 43.4579 79 62.4579C71 82.4579 62 121.458 53 118.458C45 114.458 36 66.4579 27 70.4579C18 74.4579 10 129.458 5 157.458L1 184.458V208.458H5C10 208.458 18 208.458 27 208.458C36 208.458 45 208.458 53 208.458C62 208.458 71 208.458 79 208.458C88 208.458 97 208.458 106 208.458C114 208.458 123 208.458 132 208.458C141 208.458 149 208.458 158 208.458C167 208.458 175 208.458 184 208.458C193 208.458 202 208.458 210 208.458C219 208.458 228 208.458 236 208.458C245 208.458 254 208.458 263 208.458C271 208.458 280 208.458 289 208.458C298 208.458 306 208.458 315 208.458C324 208.458 332 208.458 341 208.458C350 208.458 359 208.458 367 208.458C376 208.458 385 208.458 393 208.458C402 208.458 411 208.458 420 208.458C428 208.458 437 208.458 446 208.458C455 208.458 463 208.458 472 208.458C481 208.458 489 208.458 498 208.458C507 208.458 516 208.458 524 208.458C533 208.458 542 208.458 551 208.458C559 208.458 568 208.458 577 208.458C585 208.458 594 208.458 603 208.458C612 208.458 620 208.458 629 208.458C638 208.458 646 208.458 655 208.458C664 208.458 673 208.458 681 208.458C690 208.458 699 208.458 707 208.458C716 208.458 725 208.458 734 208.458C742 208.458 751 208.458 760 208.458C769 208.458 777 208.458 782 208.458H786V137.458Z" stroke="url(#paint0_linear_533_3)" stroke-width="2"/>
<path d="M694 347.531C689 335.531 679 223.531 670 226.531C660 229.531 650 260.531 640 273.531C630 285.531 620 279.531 611 285.531C601 291.531 591 310.531 581 310.531C571 310.531 561 291.531 552 279.531C542 266.531 532 260.531 522 257.531C512 254.531 502 254.531 493 242.531C483 229.531 473 204.531 463 211.531C453 217.531 444 254.531 434 263.531C424 273.531 414 254.531 404 254.531C394 254.531 385 273.531 375 282.531C365 291.531 355 291.531 345 276.531C335 260.531 326 229.531 316 217.531C306 204.531 296 211.531 286 217.531C277 223.531 267 229.531 257 223.531C247 217.531 237 198.531 227 214.531C218 229.531 208 279.531 198 294.531C188 310.531 178 291.531 168 276.531C159 260.531 149 248.531 139 235.531C129 223.531 119 211.531 109 223.531C100 235.531 90 321.768 85 339.768V361.768L80 347.531H85C90 347.531 100 347.531 109 347.531C119 347.531 129 347.531 139 347.531C149 347.531 159 347.531 168 347.531C178 347.531 188 347.531 198 347.531C208 347.531 218 347.531 227 347.531C237 347.531 247 347.531 257 347.531C267 347.531 277 347.531 286 347.531C296 347.531 306 347.531 316 347.531C326 347.531 335 347.531 345 347.531C355 347.531 365 347.531 375 347.531C385 347.531 394 347.531 404 347.531C414 347.531 424 347.531 434 347.531C444 347.531 453 347.531 463 347.531C473 347.531 483 347.531 493 347.531C502 347.531 512 347.531 522 347.531C532 347.531 542 347.531 552 347.531C561 347.531 571 347.531 581 347.531C591 347.531 601 347.531 611 347.531C620 347.531 630 347.531 640 347.531C650 347.531 660 347.531 670 347.531C679 347.531 689 347.531 694 347.531ZM694 347.531H699" stroke="url(#paint1_linear_533_3)" stroke-width="2"/>
<defs>
<linearGradient id="paint0_linear_533_3" x1="381.5" y1="17.9062" x2="397.668" y2="145.667" gradientUnits="userSpaceOnUse">
<stop stop-color="#00F0FF"/>
<stop offset="1" stop-color="#00F0FF" stop-opacity="0"/>
</linearGradient>
<linearGradient id="paint1_linear_533_3" x1="412.816" y1="217.894" x2="406.127" y2="275.278" gradientUnits="userSpaceOnUse">
<stop stop-color="#00F0FF"/>
<stop offset="1" stop-color="#00F0FF" stop-opacity="0"/>
</linearGradient>
</defs>
</svg>
